<?xml version="1.0" encoding="utf-8"?>
<!-- Generator: Adobe Illustrator 24.0.2, SVG Export Plug-In . SVG Version: 6.00 Build 0)  -->
<svg version="1.1" id="Layer_1" xmlns="http://www.w3.org/2000/svg" xmlns:xlink="http://www.w3.org/1999/xlink" x="0px" y="0px"
	 viewBox="0 0 37.3 28.3" style="enable-background:new 0 0 37.3 28.3;" xml:space="preserve">
<style type="text/css">
	.st0{fill:#FFFFFF;stroke:#FFFFFF;stroke-miterlimit:10;}
</style>
<g id="Layer_2_1_">
</g>
<g id="Layer_3">
</g>
<g id="Layer_4">
</g>
<g id="Layer_5">
</g>
<g id="Layer_6">
</g>
<g id="Layer_7">
</g>
<g id="Layer_8">
</g>
<g id="Layer_9">
</g>
<g id="Layer_10">
</g>
<g id="Layer_11">
</g>
<g id="Layer_12">
</g>
<g id="Layer_13">
	<g>
		<path class="st0" d="M34.8,24c-0.3-1.2-0.6-2-0.9-2.9c-0.3-0.8-0.5-1.5-0.9-2.7V7.3c0-1.1-0.7-2.1-1.7-2.4
			c-4-1.5-8.2-2.2-12.5-2.2c-4-0.1-8,0.7-11.8,2C5.6,5.1,4.7,6.5,4.7,8v10.5L2.9,24c-0.1,0.5,0,1,0.3,1.4S4,26,4.4,26
			c0.1,0,0.1,0,0.2,0c4.6-1.5,9.4-2.2,14.3-2.2l0,0c4.9,0,9.6,0.8,14.2,2.2c0,0,0.1,0,0.2,0c0.5,0,1-0.2,1.2-0.6S34.9,24.5,34.8,24z
			 M7.4,5.6c3.7-1.3,7.5-2,11.4-2l0,0c4.1,0,8.2,0.8,12.1,2.2c0.6,0.2,1,0.8,1,1.4v10.5c-4.4-1-8.8-1.6-13.1-1.6l0,0
			c-4.4,0-8.8,0.5-13.1,1.6V8C5.7,6.9,6.4,6,7.4,5.6z M33.6,24.7c-0.1,0.1-0.2,0.1-0.3,0.2c-4.7-1.5-9.5-2.2-14.5-2.2l0,0
			c-4.9,0-9.8,0.8-14.5,2.2c-0.1,0-0.2,0-0.3-0.2c-0.1-0.1-0.1-0.2-0.1-0.4L5.6,19c4.3-1.1,8.8-1.6,13.2-1.6c0,0,0,0,0.1,0
			c4.4,0,8.9,0.5,13.2,1.6c0.2,1.1,0.5,1.8,0.8,2.6c0.3,0.8,0.5,1.5,0.8,2.8C33.7,24.4,33.7,24.6,33.6,24.7z"/>
		<path class="st0" d="M10.3,14.2c0.1,0,0.1,0,0.1,0c2.7-0.6,5.5-0.9,8.3-0.9h0.1c2.8,0,5.6,0.3,8.3,0.9c0.1,0.1,0.4,0,0.5-0.1
			s0.2-0.2,0.2-0.4V8.4c0-0.2-0.1-0.4-0.4-0.5c-2.8-0.9-5.7-1.4-8.6-1.4c0,0,0,0-0.1,0c-2.9,0-5.8,0.4-8.6,1.4
			c-0.3,0-0.4,0.2-0.4,0.5v5.3c0,0.1,0.1,0.4,0.2,0.4C10.1,14.2,10.2,14.2,10.3,14.2z M10.9,8.8c2.6-0.8,5.2-1.1,7.8-1.1
			c2.8,0,5.4,0.4,8.1,1.1V13c-2.6-0.6-5.3-0.9-8-0.9l0,0c-2.7,0-5.3,0.3-7.9,0.9C10.9,13,10.9,8.8,10.9,8.8z"/>
	</g>
</g>
<g id="Layer_15">
</g>
<g id="Layer_16">
</g>
<g id="Layer_17">
</g>
<g id="Layer_18">
</g>
<g id="Layer_19">
</g>
<g id="Layer_20">
</g>
<g id="Layer_21">
</g>
<g id="Layer_22">
</g>
<g id="Layer_23">
</g>
<g id="Layer_24">
</g>
<g id="Layer_25">
</g>
<g id="Layer_26">
</g>
<g id="Layer_27">
</g>
</svg>
