<?xml version="1.0" encoding="utf-8"?>
<!-- Generator: Adobe Illustrator 24.0.2, SVG Export Plug-In . SVG Version: 6.00 Build 0)  -->
<svg version="1.1" id="Layer_1" xmlns="http://www.w3.org/2000/svg" xmlns:xlink="http://www.w3.org/1999/xlink" x="0px" y="0px"
	 viewBox="0 0 53.4 53.4" style="enable-background:new 0 0 53.4 53.4;" xml:space="preserve">
<style type="text/css">
	.st0{fill:none;stroke:#008B7D;stroke-width:3;stroke-miterlimit:10;}
	.st1{fill:#008B7D;}
</style>
<circle class="st0" cx="26.7" cy="26.7" r="24.3"/>
<g>
	<path class="st1" d="M32.8,20.8c-0.8,0-1.5,0.1-2.2,0.2l1.6,3c0.2,0,0.4,0,0.7,0c4.5,0,8.1,3.7,8.1,8.2s-3.6,8.2-8.1,8.2
		s-8.1-3.7-8.1-8.2c0-2.2,0.8-4.1,2.1-5.6l-1.6-2.9c-2.3,2.1-3.7,5.1-3.7,8.5c0,6.3,5,11.4,11.2,11.4c6.2,0,11.2-5.1,11.2-11.4
		S39,20.8,32.8,20.8z"/>
	<polygon class="st1" points="26,21.5 28.5,26.3 32.2,32.8 34.7,31.4 27.2,17.8 22.6,9.3 21.3,9.3 19.3,9.3 14.1,9.3 15.4,12.3 
		20.8,12.3 23.9,17.8 12,17.5 12,20.4 23,20.4 13.2,30.3 13.2,30.3 12,31.5 12,35.6 21.7,25.8 	"/>
</g>
</svg>
