<?xml version="1.0" encoding="utf-8"?>
<!-- Generator: Adobe Illustrator 17.0.0, SVG Export Plug-In . SVG Version: 6.00 Build 0)  -->
<!DOCTYPE svg PUBLIC "-//W3C//DTD SVG 1.1//EN" "http://www.w3.org/Graphics/SVG/1.1/DTD/svg11.dtd" [
	<!ENTITY ns_flows "http://ns.adobe.com/Flows/1.0/">
	<!ENTITY ns_extend "http://ns.adobe.com/Extensibility/1.0/">
	<!ENTITY ns_ai "http://ns.adobe.com/AdobeIllustrator/10.0/">
	<!ENTITY ns_graphs "http://ns.adobe.com/Graphs/1.0/">
]>
<svg version="1.1" id="Layer_1" xmlns:x="&ns_extend;" xmlns:i="&ns_ai;" xmlns:graph="&ns_graphs;"
	 xmlns="http://www.w3.org/2000/svg" xmlns:xlink="http://www.w3.org/1999/xlink" xmlns:a="http://ns.adobe.com/AdobeSVGViewerExtensions/3.0/"
	 x="0px" y="0px" width="53.409px" height="53.355px" viewBox="0 0 53.409 53.355" enable-background="new 0 0 53.409 53.355"
	 xml:space="preserve">
<g>
	<g>
		<path fill="#0C5887" d="M26.631,30.77c-0.535,0-1.056,0.056-1.561,0.159l1.098,2.133c0.153-0.013,0.307-0.024,0.463-0.024
			c3.141,0,5.688,2.598,5.688,5.803s-2.547,5.803-5.688,5.803s-5.688-2.598-5.688-5.803c0-1.519,0.577-2.897,1.512-3.931
			l-1.136-2.038c-1.593,1.476-2.599,3.6-2.599,5.969c0,4.457,3.542,8.071,7.911,8.071c4.369,0,7.911-3.613,7.911-8.071
			S31,30.77,26.631,30.77z"/>
		<polygon fill="#0C5887" points="21.799,31.304 23.595,34.648 26.156,39.258 27.955,38.278 22.654,28.978 19.387,23.333 
			18.501,23.333 17.05,23.333 13.38,23.333 14.297,25.333 18.15,25.333 20.334,28.942 12.041,28.449 12.041,30.498 19.72,30.534 
			12.771,37.46 12.838,37.492 12.041,38.325 12.041,41.211 18.844,34.307 		"/>
	</g>
	<g>
		<circle fill="#0C5887" cx="28.557" cy="8.392" r="2.155"/>
		<path fill="#0C5887" d="M40.759,19.788c-2.259,1.321-3.614-0.617-4.635-2.483c-0.044-0.18-0.11-0.362-0.204-0.546
			c-0.79-1.537-1.615-3.058-2.478-4.556c1.685-0.538,3.227-0.047,4.438,1.651c0.986,1.381,3.291,0.057,2.294-1.34
			c-2.346-3.285-5.843-4.1-9.345-2.021c-0.146,0.086-0.803,0.449-0.951,0.537c-2.177,1.292-4.2,1.047-5.71-1.069
			c-0.986-1.381-3.291-0.057-2.294,1.34c1.927,2.7,4.634,3.727,7.481,2.855c0.893,1.534,1.742,3.096,2.556,4.674
			c-1.204,0.616-3.347,1.779-4.043,3.005c-0.623,1.061-1.108,2.18-1.612,3.291c-0.594-0.052-1.133,0.167-1.363,0.624
			c-0.328,0.653,0.098,1.53,0.951,1.959c0.231,0.116,0.468,0.184,0.7,0.213c0.582,0.213,1.29,0.079,1.638-0.639
			c0.662-1.368,1.343-3.381,2.251-4.291c1.202-1.047,2.579-1.895,4.087-2.42c0.074-0.026,0.142-0.057,0.206-0.091
			c1.465,1.858,3.389,3.048,5.661,2.564c0.182,0.517,0.561,0.892,1.036,0.94c0.727,0.073,1.394-0.638,1.49-1.588
			c0.028-0.276-0.001-0.538-0.066-0.778C43.28,20.511,42.073,19.02,40.759,19.788z"/>
	</g>
	<circle fill="none" stroke="#0C5887" stroke-width="3" stroke-miterlimit="10" cx="26.705" cy="26.837" r="24.333"/>
</g>
</svg>
