<?xml version="1.0" encoding="utf-8"?>
<!-- Generator: Adobe Illustrator 17.0.0, SVG Export Plug-In . SVG Version: 6.00 Build 0)  -->
<!DOCTYPE svg PUBLIC "-//W3C//DTD SVG 1.1//EN" "http://www.w3.org/Graphics/SVG/1.1/DTD/svg11.dtd" [
	<!ENTITY ns_flows "http://ns.adobe.com/Flows/1.0/">
	<!ENTITY ns_extend "http://ns.adobe.com/Extensibility/1.0/">
	<!ENTITY ns_ai "http://ns.adobe.com/AdobeIllustrator/10.0/">
	<!ENTITY ns_graphs "http://ns.adobe.com/Graphs/1.0/">
]>
<svg version="1.1" id="Layer_1" xmlns:x="&ns_extend;" xmlns:i="&ns_ai;" xmlns:graph="&ns_graphs;"
	 xmlns="http://www.w3.org/2000/svg" xmlns:xlink="http://www.w3.org/1999/xlink" xmlns:a="http://ns.adobe.com/AdobeSVGViewerExtensions/3.0/"
	 x="0px" y="0px" width="53.409px" height="53.355px" viewBox="0 0 53.409 53.355" enable-background="new 0 0 53.409 53.355"
	 xml:space="preserve">
<g>
	<circle fill="none" stroke="#0C5887" stroke-width="3" stroke-miterlimit="10" cx="26.705" cy="26.677" r="24.333"/>
	<g>
		<path fill="#0C5887" d="M30.601,14.18c-0.506,0-0.999,0.053-1.477,0.15l1.039,2.018c0.145-0.012,0.29-0.023,0.438-0.023
			c2.972,0,5.382,2.458,5.382,5.49s-2.409,5.49-5.382,5.49s-5.382-2.458-5.382-5.49c0-1.437,0.545-2.741,1.431-3.719l-1.074-1.928
			c-1.507,1.397-2.459,3.406-2.459,5.647c0,4.217,3.351,7.636,7.484,7.636c4.134,0,7.484-3.419,7.484-7.636
			S34.734,14.18,30.601,14.18z"/>
		<polygon fill="#0C5887" points="26.029,14.685 27.728,17.849 30.151,22.21 31.854,21.283 26.838,12.308 23.846,6.99 19.257,7.117 
			17.663,9.333 22.856,9.333 24.528,12.207 17.041,12.197 17.041,13.953 24.184,13.956 17.018,21.056 17.03,24.058 23.35,17.526 		
			"/>
	</g>
	<path fill="#0C5887" d="M26.896,46.22c7.151,0,13.364-3.19,16.521-7.879c-2.215,0.185-7.014,0.207-7.189-3.047
		c-0.124-2.3,2.975-3.967,2.975-3.967s-5.29-1.191-8.145,3.432c-2.994,4.848-8.698,4.98-9.643,1.809
		c-0.96-3.224,2.862-4.981,2.862-4.981s-5.564-0.926-8.156,4.258c-1.458,2.917-4.147,2.289-5.796,2.418
		C13.466,42.994,19.706,46.22,26.896,46.22z"/>
</g>
</svg>
