<?xml version="1.0" encoding="utf-8"?>
<!-- Generator: Adobe Illustrator 24.0.2, SVG Export Plug-In . SVG Version: 6.00 Build 0)  -->
<svg version="1.1" id="Layer_5" xmlns="http://www.w3.org/2000/svg" xmlns:xlink="http://www.w3.org/1999/xlink" x="0px" y="0px"
	 viewBox="0 0 20.5 20.5" style="enable-background:new 0 0 20.5 20.5;" xml:space="preserve">
<style type="text/css">
	.st0{fill:#191919;}
</style>
<title>flag</title>
<path class="st0" d="M2.9,13.9v4.6c0,0.5-0.4,0.9-0.9,0.9s-0.9-0.4-0.9-0.9V2c0-0.5,0.4-0.9,0.9-0.9h7.8c0.2,0,0.5,0.1,0.6,0.3
	l0.6,0.6h7.4c0.5,0,0.9,0.4,0.9,0.9c0,0.1,0,0.3-0.1,0.4l-2.5,5.1l2.5,5.1c0.2,0.4,0.1,1-0.4,1.2c0,0,0,0,0,0
	c-0.1,0.1-0.3,0.1-0.4,0.1h-7.8c-0.2,0-0.5-0.1-0.6-0.3l-0.7-0.6L2.9,13.9z M9.3,2.9H2.9v9.1h6.9c0.2,0,0.5,0.1,0.6,0.3l0.6,0.6H17
	l-2.1-4.2c-0.1-0.3-0.1-0.6,0-0.8L17,3.8h-5.8v3.7c0,0.5-0.4,0.9-0.9,0.9C9.7,8.4,9.3,8,9.3,7.5V2.9z"/>
</svg>
