<?xml version="1.0" encoding="utf-8"?>
<!-- Generator: Adobe Illustrator 24.0.2, SVG Export Plug-In . SVG Version: 6.00 Build 0)  -->
<svg version="1.1" id="Layer_1" xmlns="http://www.w3.org/2000/svg" xmlns:xlink="http://www.w3.org/1999/xlink" x="0px" y="0px"
	 viewBox="0 0 53.4 53.4" style="enable-background:new 0 0 53.4 53.4;" xml:space="preserve">
<style type="text/css">
	.st0{fill:none;stroke:#FF4445;stroke-width:3;stroke-miterlimit:10;}
	.st1{fill:#FF4D4F;}
</style>
<circle class="st0" cx="26.7" cy="26.7" r="24.3"/>
<g>
	<path class="st1" d="M41.2,18.2c-2,0-3.9,0.1-5.9,0.1c-2.4,0-4.8-0.1-7.1-0.5c-2.2-0.4-4.3-0.9-6.5-1.5c-0.9-0.2-1.8-0.5-2.7-0.7
		c-1.3-0.2-2.3,0.9-2,2.1c0.2,0.7,0.6,1.1,1.3,1.3c1.4,0.4,2.9,0.8,4.3,1.2c1,0.3,2.1,0.6,3.2,0.9c0,0.1,0,0.2,0,0.3
		c-0.1,0.6-0.4,1.1-0.8,1.6c-0.6,0.8-1.3,1.4-2.1,2c-0.5,0.4-1,0.7-1.4,1.2c-0.8,0.8-1,1.8-1,2.8c0.1,1.5,0.2,3,0.3,4.4
		c0.1,1.5,0.2,3,0.3,4.5c0.1,1.3,0.2,2.5,0.3,3.8c0.1,0.8,0.6,1.4,1.5,1.5c0.2,0,0.5,0,0.7,0c0.8-0.1,1.3-0.7,1.4-1.5
		c0.1-2,0.3-4,0.4-6c0.1-1.8,0.2-3.6,0.4-5.4c0-0.2,0.1-0.2,0.2-0.3c1-0.7,1.9-1.5,2.8-2.3c1.6-1.5,3-3.2,3.7-5.3
		c0.1-0.2,0.2-0.2,0.3-0.2c0.6,0,1.1-0.1,1.7-0.1c2.1-0.2,4.3-0.3,6.4-0.5c0.5,0,0.9-0.2,1.3-0.3c0.4-0.2,0.7-0.5,0.8-0.9
		C43.3,19.3,42.4,18.2,41.2,18.2z"/>
	<path class="st1" d="M16,27.2c0-0.1,0.1-0.2,0.1-0.3c0.4-1.1,0.9-2.2,1.3-3.3c0.2-0.5,0.4-1.1,0.5-1.6c0.2-1-0.5-1.8-1.4-1.9
		c-0.8-0.1-1.5,0.3-1.8,1c-0.3,0.7-0.7,1.3-0.9,2c-0.6,1.6-1.3,3.2-1.9,4.9c-0.3,1,0,1.8,0.9,2.3c0.3,0.1,0.6,0.3,0.9,0.4
		c1.5,0.4,3.1,0.5,4.7,0.4c0.3,0,0.6-0.1,1-0.1c-0.2-1.4-0.2-2.7,0.2-4C18.4,27.2,17.2,27.3,16,27.2z"/>
	<path class="st1" d="M30.3,17.4c1.9,0,3.5-1.6,3.5-3.5c0-1.9-1.6-3.5-3.5-3.5c-1.9,0-3.5,1.6-3.5,3.5
		C26.8,15.8,28.4,17.4,30.3,17.4z"/>
</g>
</svg>
