<?xml version="1.0" encoding="utf-8"?>
<!-- Generator: Adobe Illustrator 24.0.2, SVG Export Plug-In . SVG Version: 6.00 Build 0)  -->
<svg version="1.1" id="Layer_4" xmlns="http://www.w3.org/2000/svg" xmlns:xlink="http://www.w3.org/1999/xlink" x="0px" y="0px"
	 viewBox="0 0 18.5 22.8" style="enable-background:new 0 0 18.5 22.8;" xml:space="preserve">
<style type="text/css">
	.st0{fill:#191919;}
</style>
<title>follow</title>
<path class="st0" d="M6.5,8.8c0.5,0,0.9-0.5,1-1.2c0-0.6-0.4-1.2-0.9-1.2s-1,0.4-1,1.2C5.5,8.2,6.1,8.8,6.5,8.8z"/>
<path class="st0" d="M4.7,8.6c0.4-0.1,0.8-0.5,0.6-1C5.3,7,5,6.7,4.6,6.7C4,6.9,3.8,7.3,3.9,7.7C3.9,8.2,4.2,8.7,4.7,8.6z"/>
<path class="st0" d="M3.3,8.9C3.6,8.8,3.7,8.3,3.6,8l0,0C3.5,7.6,3.2,7.4,2.7,7.4C2.4,7.6,2.3,8,2.4,8.3l0,0C2.5,8.8,2.8,9,3.3,8.9z
	"/>
<path class="st0" d="M2.2,9.6c0.2-0.2,0.2-0.6,0-0.9C2.1,8.6,1.8,8.5,1.4,8.6c-0.2,0.2-0.2,0.5,0,0.9C1.5,9.6,1.9,9.8,2.2,9.6z"/>
<ellipse transform="matrix(0.6576 -0.7533 0.7533 0.6576 -7.3377 4.1731)" class="st0" cx="0.9" cy="10.2" rx="0.4" ry="0.5"/>
<path class="st0" d="M8.2,16.5L8.2,16.5C8,15.6,8,14.7,8.2,14c0.1-0.5,0.1-1.1,0.2-1.7c0-1.3-1-2.4-2.3-2.6
	c-1.9-0.4-3.9,0.4-4.8,2.2c-0.6,1.4,0,2.8,0.6,4c0.2,0.4,0.4,1,0.6,1.5c0.9,2.6,1.6,4.2,2.9,4.8c0.3,0.1,0.6,0.2,1,0.2
	c0.4,0,0.8-0.1,1.2-0.2c2.3-1,1.3-3.6,0.6-5.1L8.2,16.5z M7.3,20.7L7.3,20.7c-0.3,0.1-0.6,0.1-0.9,0.1c-0.9-0.4-1.6-2.6-2.1-3.9
	c-0.2-0.5-0.4-1.1-0.6-1.6c-0.5-1.1-1-2.1-0.6-2.7c0.4-0.9,1.4-1.4,2.4-1.4c0.2,0,0.3,0,0.5,0.1c0.3,0.1,1.1,0.3,1.1,1.1
	c0,0.5-0.1,1-0.1,1.5c-0.2,1.1-0.2,2.2,0,3.2c-0.1,0.1,0,0.3,0.1,0.5C7.7,19.4,8,20.4,7.3,20.7z"/>
<path class="st0" d="M12.1,3.8C10.8,4,9.9,5.2,10,6.5c0,0.5,0.1,1.1,0.2,1.7c0.2,0.9,0.2,1.7,0.1,2.5c-0.1,0.2-0.1,0.3-0.2,0.6
	c-0.5,1.6-1.5,4.2,0.8,5.1c0.3,0.1,0.8,0.2,1.1,0.2c0.3,0,0.6-0.1,1-0.2c1-0.4,1.7-1.4,2.8-4.9c0.2-0.5,0.4-1,0.6-1.5
	c0.5-1.3,1.3-2.7,0.5-4.1C16,4.1,14,3.3,12.1,3.8z M15,9.3L15,9.3c-0.2,0.5-0.4,1.1-0.6,1.6c-0.4,1.3-1.1,3.6-1.9,3.9
	c-0.3,0.1-0.6,0.1-0.9,0c-0.8-0.3-0.5-1.3,0.1-3.1c0.1-0.2,0.1-0.4,0.2-0.5c0.2-1.1,0.2-2.2,0-3.2c-0.1-0.5-0.1-1-0.2-1.5
	c0-0.5,0.4-1.1,1-1.1c0.2,0,0.4-0.1,0.6-0.1c1,0,1.8,0.5,2.4,1.4C15.8,7.3,15.4,8.2,15,9.3z"/>
<path class="st0" d="M11.9,2.8c0.5,0,0.9-0.5,0.9-1.3s-0.4-1.2-1-1.2c-0.5,0.1-1,0.6-0.9,1.3C11,2.4,11.4,2.9,11.9,2.8z"/>
<path class="st0" d="M13.9,2.6c0.3,0,0.8-0.3,0.8-0.9s-0.2-1-0.6-1c-0.3,0-0.8,0.3-0.8,0.9S13.4,2.6,13.9,2.6z"/>
<path class="st0" d="M15.2,2.9c0.3,0.1,0.6-0.1,0.8-0.5c0.1-0.3,0-0.8-0.3-0.9S15,1.6,14.8,2.1C14.7,2.4,14.8,2.7,15.2,2.9z"/>
<ellipse transform="matrix(0.5385 -0.8426 0.8426 0.5385 5.1705 15.4451)" class="st0" cx="16.7" cy="3" rx="0.6" ry="0.5"/>
<path class="st0" d="M18.1,3.7c-0.2-0.2-0.5-0.1-0.8,0.1C17.1,4,17,4.2,17.2,4.6c0.2,0.2,0.5,0.1,0.8-0.1
	C18.1,4.2,18.2,3.9,18.1,3.7z"/>
</svg>
