<?xml version="1.0" encoding="utf-8"?>
<!-- Generator: Adobe Illustrator 24.0.2, SVG Export Plug-In . SVG Version: 6.00 Build 0)  -->
<svg version="1.1" id="Layer_2_1_" xmlns="http://www.w3.org/2000/svg" xmlns:xlink="http://www.w3.org/1999/xlink" x="0px" y="0px"
	 viewBox="0 0 21.3 21.3" style="enable-background:new 0 0 21.3 21.3;" xml:space="preserve">
<style type="text/css">
	.st0{fill:#191919;}
</style>
<title>group</title>
<path class="st0" d="M7.8,10.7c-2.6,0-4.7-2.1-4.7-4.7s2.1-4.7,4.7-4.7s4.7,2.1,4.7,4.7l0,0C12.6,8.6,10.4,10.7,7.8,10.7z M7.8,8.8
	c1.6,0,2.8-1.3,2.8-2.8c0-1.6-1.3-2.8-2.8-2.8S5,4.4,5,5.9v0C5,7.5,6.3,8.8,7.8,8.8C7.8,8.8,7.8,8.8,7.8,8.8z M14.4,19.2
	c0.1,0.5-0.3,1-0.9,1c-0.5,0.1-1-0.3-1-0.9c0-0.1,0-0.1,0-0.2v-1.9c0-1.6-1.3-2.8-2.8-2.8l0,0H5.9c-1.6,0-2.8,1.3-2.8,2.8l0,0v1.9
	c0.1,0.5-0.3,1-0.9,1c-0.5,0.1-1-0.3-1-0.9c0-0.1,0-0.1,0-0.2v-1.9c0-2.6,2.1-4.7,4.7-4.7c0,0,0,0,0,0h3.8c2.6,0,4.7,2.1,4.7,4.7
	L14.4,19.2z M15.4,14.5c-0.5,0.1-1-0.3-1-0.9s0.3-1,0.9-1c0.1,0,0.1,0,0.2,0c2.6,0,4.7,2.1,4.7,4.7v1.9c0,0.5-0.4,0.9-0.9,0.9
	c-0.5,0-0.9-0.4-0.9-0.9c0,0,0,0,0,0v-1.9C18.2,15.7,17,14.5,15.4,14.5C15.4,14.5,15.4,14.5,15.4,14.5z M13.5,10.7
	c-0.5,0-0.9-0.4-0.9-0.9c0-0.5,0.4-0.9,0.9-0.9c1.6,0,2.8-1.3,2.8-2.8c0-1.6-1.3-2.8-2.8-2.8c-0.5-0.1-0.9-0.5-0.9-1
	c0-0.5,0.4-0.8,0.9-0.9c2.6,0.1,4.6,2.3,4.5,4.9C17.9,8.6,15.9,10.6,13.5,10.7z"/>
</svg>
