<?xml version="1.0" encoding="utf-8"?>
<!-- Generator: Adobe Illustrator 17.0.0, SVG Export Plug-In . SVG Version: 6.00 Build 0)  -->
<!DOCTYPE svg PUBLIC "-//W3C//DTD SVG 1.1//EN" "http://www.w3.org/Graphics/SVG/1.1/DTD/svg11.dtd" [
	<!ENTITY ns_flows "http://ns.adobe.com/Flows/1.0/">
	<!ENTITY ns_extend "http://ns.adobe.com/Extensibility/1.0/">
	<!ENTITY ns_ai "http://ns.adobe.com/AdobeIllustrator/10.0/">
	<!ENTITY ns_graphs "http://ns.adobe.com/Graphs/1.0/">
]>
<svg version="1.1" id="Layer_1" xmlns:x="&ns_extend;" xmlns:i="&ns_ai;" xmlns:graph="&ns_graphs;"
	 xmlns="http://www.w3.org/2000/svg" xmlns:xlink="http://www.w3.org/1999/xlink" xmlns:a="http://ns.adobe.com/AdobeSVGViewerExtensions/3.0/"
	 x="0px" y="0px" width="41.139px" height="20.281px" viewBox="0 0 41.139 20.281" enable-background="new 0 0 41.139 20.281"
	 xml:space="preserve">
<path fill="#EFEFEF" d="M0.666,0c0.151,12,9.001,19.63,19.904,19.63S40.323,12,40.473,0H0.666z"/>
<path fill="#A8A7A7" d="M13.645,2.281h12.88c0.445,0,0.805,0.36,0.805,0.805s-0.36,0.805-0.805,0.805h-12.88
	c-0.445,0-0.805-0.36-0.805-0.805S13.2,2.281,13.645,2.281z M13.645,7.111h12.88c0.445,0,0.805,0.36,0.805,0.805
	s-0.36,0.805-0.805,0.805h-12.88c-0.445,0-0.805-0.36-0.805-0.805S13.2,7.111,13.645,7.111z M13.645,11.941h12.88
	c0.445,0,0.805,0.36,0.805,0.805c0,0.445-0.36,0.805-0.805,0.805h-12.88c-0.445,0-0.805-0.36-0.805-0.805
	C12.84,12.302,13.2,11.941,13.645,11.941z"/>
</svg>
