<?xml version="1.0" encoding="utf-8"?>
<!-- Generator: Adobe Illustrator 24.0.2, SVG Export Plug-In . SVG Version: 6.00 Build 0)  -->
<svg version="1.1" id="Layer_1" xmlns="http://www.w3.org/2000/svg" xmlns:xlink="http://www.w3.org/1999/xlink" x="0px" y="0px"
	 viewBox="0 0 51.6 57" style="enable-background:new 0 0 51.6 57;" xml:space="preserve">
<style type="text/css">
	.st0{fill:#114E7E;}
</style>
<title>home</title>
<path class="st0" d="M49.4,20.9c-0.1-0.4-0.2-0.9-0.7-1.2L26.9,2.3c-0.7-0.5-1.5-0.5-2,0L3,19.6c-0.4,0.3-0.7,0.8-0.7,1.3v27.4
	c0,3.7,2.9,6.7,6.5,6.7h34c3.6,0,6.5-3,6.5-6.7V21.1L49.4,20.9z M31.4,30.3v21.4H20.2V30.3H31.4z M42.9,51.6h-8.1V28.5
	c0-1-0.8-1.8-1.7-1.8H18.4c-0.9,0-1.7,0.8-1.7,1.8v23.1h-8c-1.8,0-3.2-1.4-3.2-3.3V21.9L25.8,5.8L46,21.9v26.5
	C46,50.2,44.6,51.6,42.9,51.6z"/>
</svg>
