<?xml version="1.0" encoding="utf-8"?>
<!-- Generator: Adobe Illustrator 17.0.0, SVG Export Plug-In . SVG Version: 6.00 Build 0)  -->
<!DOCTYPE svg PUBLIC "-//W3C//DTD SVG 1.1//EN" "http://www.w3.org/Graphics/SVG/1.1/DTD/svg11.dtd" [
	<!ENTITY ns_flows "http://ns.adobe.com/Flows/1.0/">
	<!ENTITY ns_extend "http://ns.adobe.com/Extensibility/1.0/">
	<!ENTITY ns_ai "http://ns.adobe.com/AdobeIllustrator/10.0/">
	<!ENTITY ns_graphs "http://ns.adobe.com/Graphs/1.0/">
]>
<svg version="1.1" id="Layer_1" xmlns:x="&ns_extend;" xmlns:i="&ns_ai;" xmlns:graph="&ns_graphs;"
	 xmlns="http://www.w3.org/2000/svg" xmlns:xlink="http://www.w3.org/1999/xlink" xmlns:a="http://ns.adobe.com/AdobeSVGViewerExtensions/3.0/"
	 x="0px" y="0px" width="53.409px" height="53.355px" viewBox="0 0 53.409 53.355" enable-background="new 0 0 53.409 53.355"
	 xml:space="preserve">
<g>
	<circle fill="none" stroke="#0C5887" stroke-width="3" stroke-miterlimit="10" cx="26.705" cy="26.677" r="24.333"/>
	<polygon fill="#0C5887" points="43.041,24.333 43.041,19.333 41.041,19.333 41.041,16.333 36.041,16.333 36.041,24.333 
		26.538,24.333 17.041,24.333 17.041,16.333 12.041,16.333 12.041,19.333 10.041,19.333 10.041,24.333 8.041,24.333 8.041,28.333 
		10.041,28.333 10.041,34.333 12.041,34.333 12.041,36.333 17.041,36.333 17.041,28.333 26.538,28.333 36.041,28.333 36.041,36.333 
		41.041,36.333 41.041,33.333 43.041,33.333 43.041,28.333 45.041,28.333 45.041,24.333 	"/>
</g>
</svg>
