<?xml version="1.0" encoding="utf-8"?>
<!-- Generator: Adobe Illustrator 24.0.2, SVG Export Plug-In . SVG Version: 6.00 Build 0)  -->
<svg version="1.1" id="Layer_8" xmlns="http://www.w3.org/2000/svg" xmlns:xlink="http://www.w3.org/1999/xlink" x="0px" y="0px"
	 viewBox="0 0 21.1 21.1" style="enable-background:new 0 0 21.1 21.1;" xml:space="preserve">
<style type="text/css">
	.st0{fill:#191919;}
</style>
<title>logout</title>
<g id="icons">
	<g id="exit2">
		<path class="st0" d="M10.5,7.7c1,0,1.8-0.8,1.8-1.8V2.2c0-1-0.8-1.8-1.8-1.8S8.7,1.2,8.7,2.2v3.7C8.7,6.9,9.5,7.7,10.5,7.7z"/>
		<path class="st0" d="M17,3L17,3c-0.3-0.3-0.6-0.4-1-0.4c-0.8,0-1.4,0.6-1.4,1.4c0,0.4,0.1,0.7,0.4,1.1l0,0
			c1.2,1.2,1.9,2.8,1.8,4.5c-0.1,3.5-3.1,6.3-6.6,6.2C6.8,15.6,4.2,12.9,4,9.6C4,7.9,4.7,6.2,6,5.1l0,0c0.3-0.3,0.4-0.6,0.5-1
			c0-0.8-0.6-1.4-1.4-1.4C4.7,2.7,4.3,2.8,4,3l0,0C0.5,6.6,0.5,12.4,4.1,16s9.4,3.5,12.9-0.1C20.6,12.3,20.6,6.6,17,3L17,3z"/>
	</g>
</g>
</svg>
