<?xml version="1.0" encoding="utf-8"?>
<!-- Generator: Adobe Illustrator 24.0.2, SVG Export Plug-In . SVG Version: 6.00 Build 0)  -->
<svg version="1.1" id="Layer_6" xmlns="http://www.w3.org/2000/svg" xmlns:xlink="http://www.w3.org/1999/xlink" x="0px" y="0px"
	 viewBox="0 0 51.2 39.8" style="enable-background:new 0 0 51.2 39.8;" xml:space="preserve">
<style type="text/css">
	.st0{fill:#114E7E;}
</style>
<title>menu</title>
<path class="st0" d="M8.2,8.4h35.7c1,0.1,1.7,0.9,1.6,1.9c-0.1,0.9-0.8,1.6-1.6,1.6H8.2c-1,0.1-1.8-0.7-1.9-1.6C6.3,9.3,7,8.4,8,8.4
	C8.1,8.4,8.1,8.4,8.2,8.4z M8.2,18.8h35.7c1,0,1.7,0.8,1.7,1.8c0,1-0.8,1.7-1.7,1.7H8.2c-1,0-1.7-0.8-1.7-1.7
	C6.5,19.6,7.2,18.8,8.2,18.8z M8.2,29.3h35.7c1,0.1,1.7,0.9,1.6,1.9c-0.1,0.9-0.8,1.6-1.6,1.6H8.2c-1,0.1-1.8-0.7-1.9-1.6
	c-0.1-1,0.7-1.8,1.6-1.9C8.1,29.3,8.1,29.3,8.2,29.3z"/>
</svg>
