<?xml version="1.0" encoding="utf-8"?>
<!-- Generator: Adobe Illustrator 24.0.2, SVG Export Plug-In . SVG Version: 6.00 Build 0)  -->
<svg version="1.1" id="Layer_5" xmlns="http://www.w3.org/2000/svg" xmlns:xlink="http://www.w3.org/1999/xlink" x="0px" y="0px"
	 viewBox="0 0 49.7 52.2" style="enable-background:new 0 0 49.7 52.2;" xml:space="preserve">
<style type="text/css">
	.st0{fill:#114E7E;}
</style>
<title>messages</title>
<path class="st0" d="M40.2,1H9.5C4.8,1,0.9,4.9,0.9,9.6v22.2c0,4.7,3.9,8.6,8.6,8.6h0.6l6.6,11.3l6.6-11.3h17c4.7,0,8.6-3.9,8.6-8.6
	V9.6C48.8,4.9,44.9,1,40.2,1z M9.5,4.7h30.7c2.7,0,4.9,2.2,4.9,4.9v22.2c0,2.7-2.2,4.9-4.9,4.9H21l-4.4,7.6l-4.4-7.6H9.5
	c-2.7,0-4.9-2.2-4.9-4.9V9.6C4.6,6.9,6.8,4.7,9.5,4.7z"/>
<circle class="st0" cx="14.4" cy="21.2" r="3.5"/>
<path class="st0" d="M22.7,23.7c3.8,2.9,8-1.4,5.1-5.1C24.1,15.8,19.8,20,22.7,23.7z"/>
<path class="st0" d="M33.5,23.7c3.8,2.9,8-1.4,5.1-5.1C34.9,15.8,30.7,20,33.5,23.7z"/>
</svg>
