<?xml version="1.0" encoding="utf-8"?>
<!-- Generator: Adobe Illustrator 24.0.2, SVG Export Plug-In . SVG Version: 6.00 Build 0)  -->
<svg version="1.1" id="Layer_4" xmlns="http://www.w3.org/2000/svg" xmlns:xlink="http://www.w3.org/1999/xlink" x="0px" y="0px"
	 viewBox="0 0 58.2 53.9" style="enable-background:new 0 0 58.2 53.9;" xml:space="preserve">
<style type="text/css">
	.st0{fill:#114E7E;}
</style>
<title>notification</title>
<g>
	<path class="st0" d="M56.1,41.7c-3.5,0-6.3-2.8-6.3-6.3V21.9c0-11.4-9.3-20.7-20.7-20.7c-11.4,0-20.7,9.3-20.7,20.7v13.5
		c0,3.5-2.8,6.3-6.3,6.3c-1,0-1.8,0.8-1.8,1.8s0.8,1.8,1.8,1.8h54c0.9,0,1.7-0.7,1.8-1.8C57.9,42.5,57.1,41.7,56.1,41.7z M48.4,41.7
		H9.7c1.5-1.7,2.3-4,2.3-6.3V21.9c0-9.4,7.7-17.1,17.1-17.1s17.1,7.7,17.1,17.1v13.5C46.2,37.7,47,39.9,48.4,41.7z"/>
	<path class="st0" d="M34.8,46.5c-0.9-0.4-1.9-0.1-2.4,0.7c-0.4,0.5-0.8,1-1.3,1.3c-0.8,0.5-1.9,0.6-2.8,0.3
		c-0.9-0.3-1.7-0.8-2.1-1.7c-0.3-0.4-0.7-0.7-1.1-0.8c-0.5-0.2-1-0.1-1.4,0.2c-0.4,0.3-0.7,0.7-0.8,1.1c-0.2,0.5-0.1,1,0.2,1.4
		c0.6,1.1,1.5,1.9,2.6,2.6c1.1,0.6,2.3,1,3.6,1c2.5,0,4.9-1.3,6.4-3.5l0-0.1c0.2-0.6,0.3-1.1,0.1-1.6C35.5,47,35.2,46.7,34.8,46.5z"
		/>
</g>
</svg>
