<?xml version="1.0" encoding="utf-8"?>
<!-- Generator: Adobe Illustrator 21.1.0, SVG Export Plug-In . SVG Version: 6.00 Build 0)  -->
<svg version="1.1" id="Layer_3" xmlns="http://www.w3.org/2000/svg" xmlns:xlink="http://www.w3.org/1999/xlink" x="0px" y="0px"
	 viewBox="0 0 49.5 49.5" style="enable-background:new 0 0 49.5 49.5;" xml:space="preserve">
<style type="text/css">
	.st0{fill:#114E7E;}
</style>
<title>questions</title>
<g>
	<path class="st0" d="M30.2,14.5c-1.5-1.3-3.3-1.9-5.1-1.8c-1.9,0-3.8,0.7-5.2,1.9s-2.2,2.1-2.5,5.1h4.2c-0.1-0.9,0.3-1.8,1-2.3
		c0.6-0.6,1.4-0.9,2.2-0.9c0.8-0.1,1.7,0.3,2.3,0.9c0.6,0.6,0.9,1.4,0.8,2.2c0,0.8-0.3,1.6-0.8,2.2l-2.5,2.5
		c-0.5,0.5-0.9,1.1-1.1,1.8c-0.2,0.5,0,1.2,0,2.1V30h2.9v-1.2c0-0.8,0.3-1.6,0.8-2.2c0.2-0.2,0.5-0.4,0.8-0.7s0.7-0.6,1-1
		s0.7-0.7,1-0.9c0.4-0.4,0.7-0.8,1-1.2c0.8-1,1.2-2.3,1.2-3.5C32.3,17.5,31.6,15.7,30.2,14.5z"/>
	<path class="st0" d="M24.8,31.6c-0.7,0-1.4,0.3-1.9,0.8c-0.5,0.5-0.8,1.1-0.8,1.8s0.3,1.4,0.8,1.8c0.5,0.5,1.2,0.8,1.9,0.8
		s1.4-0.3,1.9-0.8s0.8-1.1,0.8-1.8s-0.3-1.4-0.8-1.8C26.2,31.8,25.5,31.6,24.8,31.6z"/>
	<path class="st0" d="M24.8,0.6C11.5,0.6,0.6,11.5,0.6,24.8S11.5,49,24.8,49S49,38.1,49,24.8C48.9,11.5,38,0.6,24.8,0.6z M24.8,45.5
		C13.3,45.5,4,36.2,4,24.8C4,13.3,13.3,4,24.8,4c11.4,0,20.7,9.3,20.7,20.8C45.5,36.2,36.2,45.5,24.8,45.5z"/>
</g>
</svg>
