<?xml version="1.0" encoding="utf-8"?>
<!-- Generator: Adobe Illustrator 24.0.2, SVG Export Plug-In . SVG Version: 6.00 Build 0)  -->
<svg version="1.1" id="Layer_1" xmlns="http://www.w3.org/2000/svg" xmlns:xlink="http://www.w3.org/1999/xlink" x="0px" y="0px"
	 viewBox="0 0 19.7 22.1" style="enable-background:new 0 0 19.7 22.1;" xml:space="preserve">
<style type="text/css">
	.st0{fill:#191919;}
</style>
<title>recent</title>
<path class="st0" d="M11.2,11.8V8.3c0-0.6-0.7-1-1.2-1s-1.2,0.4-1.2,1v3.9c0,0.3,0.1,0.5,0.3,0.7l2.8,2.8c0.4,0.4,1.1,0.3,1.5-0.1
	c0.3-0.4,0.3-0.9,0.1-1.3L11.2,11.8z"/>
<path class="st0" d="M16.8,6.6L16.8,6.6l0.7-0.7c0.5-0.5,0.5-1.3,0-1.8c0,0,0,0,0,0L17.4,4c-0.5-0.5-1.3-0.5-1.8,0c0,0,0,0,0,0
	l-0.7,0.7c0,0,0,0.1-0.1,0.1c-0.9-0.7-2-1.2-3.2-1.4c0-0.1,0.4-0.1,0.4-0.2v-1c0-0.7-1.3-1-2-1H10c-0.7,0-1.1,0.3-1.1,1v1
	c0,0.1-0.1,0.1-0.1,0.2c-4.9,0.6-8.4,5-7.8,9.9s5,8.4,9.9,7.8c4.9-0.6,8.4-5,7.8-9.9C18.5,9.5,17.8,7.9,16.8,6.6z M9.8,19.2
	c-3.9,0-7.1-3.2-7.1-7.1S5.9,5,9.8,5s7.1,3.2,7.1,7.1S13.8,19.2,9.8,19.2L9.8,19.2z"/>
</svg>
