<?xml version="1.0" encoding="utf-8"?>
<!-- Generator: Adobe Illustrator 17.0.0, SVG Export Plug-In . SVG Version: 6.00 Build 0)  -->
<!DOCTYPE svg PUBLIC "-//W3C//DTD SVG 1.1//EN" "http://www.w3.org/Graphics/SVG/1.1/DTD/svg11.dtd" [
	<!ENTITY ns_flows "http://ns.adobe.com/Flows/1.0/">
	<!ENTITY ns_extend "http://ns.adobe.com/Extensibility/1.0/">
	<!ENTITY ns_ai "http://ns.adobe.com/AdobeIllustrator/10.0/">
	<!ENTITY ns_graphs "http://ns.adobe.com/Graphs/1.0/">
]>
<svg version="1.1" id="Layer_1" xmlns:x="&ns_extend;" xmlns:i="&ns_ai;" xmlns:graph="&ns_graphs;"
	 xmlns="http://www.w3.org/2000/svg" xmlns:xlink="http://www.w3.org/1999/xlink" xmlns:a="http://ns.adobe.com/AdobeSVGViewerExtensions/3.0/"
	 x="0px" y="0px" width="53.409px" height="53.355px" viewBox="0 0 53.409 53.355" enable-background="new 0 0 53.409 53.355"
	 xml:space="preserve">
<circle fill="none" stroke="#0C5887" stroke-width="3" stroke-miterlimit="10" cx="26.705" cy="26.677" r="24.333"/>
<g>
	<path fill="#0C5887" d="M12.162,31.518c0.897,2.664,2.147,4.854,4.955,6.962l2.748-4.8c-1.343-1.161-1.905-2.242-2.401-3.563
		L12.162,31.518z"/>
	<path fill="#0C5887" d="M35.659,27.187l5.021,2.874c1.925-6.929-1.21-12.969-7.102-16.342c-5.2-2.977-11.472-2.404-16.048,0.865
		l-1.709-1.882l-3.364,10.09l10.401-2.125l-1.719-1.933c2.85-1.782,6.621-2.089,9.742-0.303
		C34.13,20.291,36.072,23.408,35.659,27.187z"/>
	<path fill="#0C5887" d="M23.645,35.844l-2.748,4.8c2.49,0.911,5.76,1.239,8.58,0.602l-1.392-5.23
		C26.624,36.308,24.58,35.965,23.645,35.844z"/>
	<path fill="#0C5887" d="M33.857,32.178c-0.466,0.737-1.149,1.478-1.959,2.128l1.434,5.653c2.12-1.216,4.323-3.599,5.24-5.082
		L33.857,32.178z"/>
</g>
</svg>
