<?xml version="1.0" encoding="utf-8"?>
<!-- Generator: Adobe Illustrator 21.1.0, SVG Export Plug-In . SVG Version: 6.00 Build 0)  -->
<svg version="1.1" id="Layer_3" xmlns="http://www.w3.org/2000/svg" xmlns:xlink="http://www.w3.org/1999/xlink" x="0px" y="0px"
	 viewBox="0 0 49.5 49.5" style="enable-background:new 0 0 49.5 49.5;" xml:space="preserve">
<style type="text/css">
	.st0{fill:#114E7E;}
</style>
<title>questions</title>
<path class="st0" d="M27.6,4c-6-4.6-14.5-4.6-20.4,0c-8.7,6.8-8.7,19.8,0,26.6c6,4.6,14.5,4.6,20.4,0c0,0,0.1-0.1,0.1-0.1l17.4,17.4
	c0.8,0.8,2,0.8,2.8,0c0.8-0.8,0.8-2,0-2.8L30.6,27.7C36.2,20.5,35.2,9.9,27.6,4z M28,25.4c-5.4,6.9-15.8,6.9-21.1,0
	c-3.7-4.7-3.7-11.5,0-16.2c5.4-6.9,15.8-6.9,21.1,0C31.6,13.9,31.6,20.7,28,25.4z"/>
</svg>
