<?xml version="1.0" encoding="utf-8"?>
<!-- Generator: Adobe Illustrator 24.0.2, SVG Export Plug-In . SVG Version: 6.00 Build 0)  -->
<svg version="1.1" id="Layer_7" xmlns="http://www.w3.org/2000/svg" xmlns:xlink="http://www.w3.org/1999/xlink" x="0px" y="0px"
	 viewBox="0 0 20 21.2" style="enable-background:new 0 0 20 21.2;" xml:space="preserve">
<style type="text/css">
	.st0{fill:#191919;}
</style>
<title>setting</title>
<path class="st0" d="M7.1,3.4V2.9C7.1,1.8,8,0.9,9,0.9H11c1.1,0,1.9,0.9,1.9,1.9v0.6c0.7,0.3,1.3,0.6,1.8,1.1l0.5-0.3
	c0.9-0.5,2.1-0.2,2.7,0.7l0,0l1,1.7c0.5,0.9,0.2,2.1-0.7,2.6c0,0,0,0,0,0l-0.5,0.3c0.1,0.7,0.1,1.4,0,2.2l0.5,0.3
	c0.9,0.5,1.2,1.7,0.7,2.6l-0.9,1.7c-0.5,0.9-1.7,1.2-2.6,0.7c0,0,0,0,0,0l-0.5-0.3c-0.6,0.5-1.2,0.8-1.8,1.1v0.6
	c0,1.1-0.9,1.9-2,1.9c0,0,0,0,0,0H9c-1.1,0-1.9-0.9-1.9-1.9v-0.6c-0.7-0.3-1.3-0.6-1.8-1.1L4.8,17c-0.9,0.5-2.1,0.2-2.6-0.7l0,0
	l-1-1.7c-0.5-0.9-0.2-2.1,0.7-2.6c0,0,0,0,0,0l0.5-0.3c-0.1-0.7-0.1-1.4,0-2.2L1.8,9.2C0.9,8.7,0.6,7.5,1.1,6.6l1-1.7
	C2.6,4,3.8,3.7,4.7,4.2l0.5,0.3C5.8,4.1,6.4,3.7,7.1,3.4L7.1,3.4z M6,6.4L5.5,6.9L3.8,5.9l-1,1.6l1.7,1L4.3,9.3
	c-0.2,0.9-0.2,1.8,0,2.7l0.2,0.7l-1.7,1l1,1.7l1.7-1L6,14.8c0.7,0.6,1.5,1.1,2.3,1.4L9,16.4v2H11v-2l0.7-0.2
	c0.9-0.3,1.7-0.7,2.3-1.4l0.5-0.5l1.7,1l1-1.7l-1.7-1l0.2-0.7c0.2-0.9,0.2-1.8,0-2.7l-0.2-0.7l1.7-1l-1-1.6l-1.7,0.9L14,6.4
	c-0.7-0.6-1.5-1.1-2.3-1.3L11,4.8v-2H9v2L8.4,5C7.5,5.3,6.7,5.8,6,6.4z M10,14.5c-2.1,0-3.9-1.7-3.9-3.9c0-2.1,1.7-3.9,3.9-3.9
	s3.9,1.7,3.9,3.9c0,0,0,0,0,0C13.9,12.8,12.2,14.5,10,14.5C10,14.5,10,14.5,10,14.5z M10,12.6c1.1,0,1.9-0.9,1.9-1.9
	S11.1,8.7,10,8.7c-1.1,0-1.9,0.9-1.9,1.9l0,0C8.1,11.7,8.9,12.6,10,12.6z"/>
</svg>
