<?xml version="1.0" encoding="utf-8"?>
<!-- Generator: Adobe Illustrator 24.0.2, SVG Export Plug-In . SVG Version: 6.00 Build 0)  -->
<svg version="1.1" id="Layer_3" xmlns="http://www.w3.org/2000/svg" xmlns:xlink="http://www.w3.org/1999/xlink" x="0px" y="0px"
	 viewBox="0 0 19.8 21.5" style="enable-background:new 0 0 19.8 21.5;" xml:space="preserve">
<style type="text/css">
	.st0{fill:#191919;}
</style>
<title>team</title>
<path class="st0" d="M18.3,8.3c-1.4,0-2.5-1.1-2.5-2.5V1.8c0-0.6-0.5-1.1-1.1-1.1l0,0h-2c-0.6,0-1.1,0.5-1.1,1.1V4
	c0,0.8-0.5,1.5-1.3,1.7c-0.9,0.2-1.8-0.4-2-1.3c0-0.1,0-0.2,0-0.3V1.8c0-0.6-0.5-1.1-1.1-1.1h-2C4.5,0.7,4,1.2,4,1.8v3.9
	c0,1.4-1.1,2.5-2.5,2.5H0.6v12.6h18.5V8.3H18.3z M17.4,19.2H2.3V9.8c2-0.4,3.3-2.1,3.4-4.1V2.4h0.8v1.5c0,1.8,1.3,3.3,3,3.5
	c1.8,0.2,3.5-1.1,3.7-3c0-0.1,0-0.2,0-0.4V2.4h0.8v3.4c0,2,1.4,3.7,3.3,4.1V19.2z M6.5,11.6H11l-2.7,5.5l1.5,0.8l3.9-7.9H6.5V11.6z"
	/>
</svg>
