<?xml version="1.0" encoding="utf-8"?>
<!-- Generator: Adobe Illustrator 17.0.0, SVG Export Plug-In . SVG Version: 6.00 Build 0)  -->
<!DOCTYPE svg PUBLIC "-//W3C//DTD SVG 1.1//EN" "http://www.w3.org/Graphics/SVG/1.1/DTD/svg11.dtd" [
	<!ENTITY ns_flows "http://ns.adobe.com/Flows/1.0/">
	<!ENTITY ns_extend "http://ns.adobe.com/Extensibility/1.0/">
	<!ENTITY ns_ai "http://ns.adobe.com/AdobeIllustrator/10.0/">
	<!ENTITY ns_graphs "http://ns.adobe.com/Graphs/1.0/">
]>
<svg version="1.1" id="Layer_1" xmlns:x="&ns_extend;" xmlns:i="&ns_ai;" xmlns:graph="&ns_graphs;"
	 xmlns="http://www.w3.org/2000/svg" xmlns:xlink="http://www.w3.org/1999/xlink" xmlns:a="http://ns.adobe.com/AdobeSVGViewerExtensions/3.0/"
	 x="0px" y="0px" width="53.409px" height="53.355px" viewBox="0 0 53.409 53.355" enable-background="new 0 0 53.409 53.355"
	 xml:space="preserve">
<g>
	<path fill="#0C5887" d="M26.933,45.884c7.076,0,13.225-3.475,16.349-8.582c-2.192,0.201-6.941,0.226-7.114-3.319
		c-0.122-2.506,2.944-4.321,2.944-4.321s-5.696-0.153-8.06,3.739c-2.777,4.572-6.06,4.105-6.701,4.074
		c-0.471-0.023-2.024-0.312-2.842-2.103c-1.227-2.687,2.832-5.426,2.832-5.426s-6.355-0.036-8.423,4.218
		c-1.384,2.848-3.752,2.913-5.384,3.054C13.642,42.37,19.818,45.884,26.933,45.884z"/>
	<circle fill="none" stroke="#0C5887" stroke-width="3" stroke-miterlimit="10" cx="26.705" cy="26.677" r="24.333"/>
	<g>
		<path fill="#0C5887" d="M23.012,15.128c-0.407,0-0.805,0.042-1.19,0.121l0.837,1.625c0.117-0.01,0.234-0.018,0.353-0.018
			c2.394,0,4.334,1.98,4.334,4.422s-1.941,4.422-4.334,4.422s-4.334-1.98-4.334-4.422c0-1.157,0.439-2.207,1.152-2.995l-0.865-1.553
			c-1.214,1.125-1.981,2.743-1.981,4.548c0,3.396,2.699,6.15,6.028,6.15c3.329,0,6.028-2.753,6.028-6.15
			S26.341,15.128,23.012,15.128z"/>
		<polygon fill="#0C5887" points="19.33,15.535 20.699,18.083 22.65,21.595 24.021,20.849 19.982,13.62 17.75,9.69 13.083,9.749 
			13.614,11.333 16.775,11.333 18.096,13.593 12.041,13.531 12.041,14.945 17.819,14.947 12.487,20.225 12.594,20.25 12.041,20.884 
			12.041,23.084 17.152,17.823 		"/>
	</g>
	<g>
		<circle fill="#0C5887" cx="33.68" cy="10.945" r="1.81"/>
		<path fill="#0C5887" d="M43.93,20.518c-1.898,1.11-3.036-0.519-3.893-2.086c-0.037-0.151-0.092-0.304-0.172-0.459
			c-0.664-1.291-1.356-2.569-2.081-3.827c1.416-0.452,2.71-0.039,3.728,1.387c0.828,1.16,2.765,0.048,1.927-1.126
			c-1.97-2.759-4.908-3.444-7.85-1.698c-0.122,0.073-0.675,0.377-0.799,0.451c-1.828,1.086-3.528,0.88-4.797-0.898
			c-0.829-1.16-2.765-0.048-1.927,1.126c1.619,2.268,3.892,3.131,6.284,2.398c0.751,1.289,1.463,2.601,2.148,3.926
			c-1.012,0.517-2.811,1.494-3.396,2.524c-0.523,0.891-0.931,1.831-1.354,2.765c-0.499-0.044-0.952,0.141-1.145,0.524
			c-0.276,0.548,0.082,1.285,0.799,1.645c0.194,0.097,0.394,0.154,0.588,0.179c0.489,0.179,1.084,0.066,1.376-0.537
			c0.556-1.149,1.128-2.84,1.891-3.604c1.01-0.879,2.167-1.592,3.433-2.033c0.062-0.022,0.119-0.048,0.173-0.077
			c1.23,1.561,2.847,2.56,4.756,2.154c0.153,0.435,0.471,0.749,0.871,0.789c0.611,0.062,1.171-0.536,1.251-1.334
			c0.023-0.232,0-0.452-0.055-0.654C46.047,21.125,45.033,19.873,43.93,20.518z"/>
	</g>
</g>
</svg>
