<?xml version="1.0" encoding="utf-8"?>
<!-- Generator: Adobe Illustrator 24.0.2, SVG Export Plug-In . SVG Version: 6.00 Build 0)  -->
<svg version="1.1" id="Layer_1" xmlns="http://www.w3.org/2000/svg" xmlns:xlink="http://www.w3.org/1999/xlink" x="0px" y="0px"
	 viewBox="0 0 53.4 53.4" style="enable-background:new 0 0 53.4 53.4;" xml:space="preserve">
<style type="text/css">
	.st0{fill:none;stroke:#C611F2;stroke-width:3;stroke-miterlimit:10;}
	.st1{fill:#CD0FF4;}
</style>
<circle class="st0" cx="26.7" cy="26.7" r="24.3"/>
<g>
	<g>
		<ellipse class="st1" cx="27.1" cy="13.2" rx="3.7" ry="3.6"/>
		<path class="st1" d="M37.2,25.6c-3-1.7-5.5-4-7.6-6.7c-1.3-1.8-4.8-1.7-6.2-0.1c-2.1,2-3.9,4.1-5.4,6.2c-0.6,0.9-0.4,2,0.5,2.6
			c0.3,0.2,0.7,0.3,1.1,0.3c0.6,0,1.2-0.3,1.6-0.8c0.6-0.9,1.3-1.8,2.1-2.8c0,1.9,0.1,2.5,0.1,4.1c0,0.5-0.1,1-0.4,1.5
			c-2,3.7-3.2,7.2-4.5,11.5c-0.3,1,0.3,2.1,1.4,2.4c0.2,0.1,0.5,0.1,0.7,0.1c0.8-0.1,1.5-0.6,1.8-1.4c1.2-3.9,2.3-7.1,4.1-10.5
			c0.1,0,0.2,0,0.3,0c1.1,3.3,2.3,6.7,3.4,10c0.8,2.4,4.7,1.2,3.8-1.3c-1.2-3.6-2.5-7.3-3.7-10.9c-0.1-0.2-0.2-1-0.3-1.3
			c-0.2-2.2-0.3-1.5-0.3-3.7c1.7,1.6,3.7,3.1,5.8,4.3C37.8,30.3,39.3,26.8,37.2,25.6z"/>
	</g>
</g>
</svg>
