<svg id="Layer_3" data-name="Layer 3" xmlns="http://www.w3.org/2000/svg" viewBox="0 0 864.93 359.47"><defs><style>.cls-1{fill:#fff;}</style></defs><title>coachingmateLogo</title><path class="cls-1" d="M883.46,1089.62l59-57.19c-9.27-9.77-50.92-51.48-119-56.16-11.82-.81-70.78-3.69-123.79,38a181.09,181.09,0,0,0-64.82,178.24c2.81,13.63,14.19,60.69,56.38,97.9a182,182,0,0,0,54,32.41c41.7,16.14,77.46,12.51,86.08,11.48,41.91-5,70.26-24.1,84-33.58,19-13.08,30.52-26.36,34.72-30.22,31-28.5,220.46-216.27,220.46-216.27l-61.16-59.46c-85.07,83.39-123.12,122-142,141.69,0,0-32.34,33.84-69.79,71.65-4,4.08-8.12,8.15-8.12,8.15-8.3,8.28-14.88,14.7-15.6,15.39-7.37,7.1-37.72,27.48-77,22.28-8.11-1.07-37.14-6-59.95-31.21-31.08-34.41-24.53-77.74-23.43-84.24a103.76,103.76,0,0,1,18.23-43.21c4.24-5.38,27.34-33.56,67.85-37.81C847.9,1052.4,879.92,1085.79,883.46,1089.62Z" transform="translate(-631.1 -975.9)"/><polygon class="cls-1" points="410.94 248.42 644.49 18.13 703.93 78.26 471.5 309.41 410.94 248.42"/><polygon class="cls-1" points="571.94 248.42 805.49 18.13 864.93 78.26 632.5 309.41 571.94 248.42"/></svg>