<?xml version="1.0" standalone="no"?>
<!DOCTYPE svg PUBLIC "-//W3C//DTD SVG 20010904//EN"
 "http://www.w3.org/TR/2001/REC-SVG-20010904/DTD/svg10.dtd">
<svg version="1.0" xmlns="http://www.w3.org/2000/svg"
 width="1280.000000pt" height="1280.000000pt" viewBox="0 0 1280.000000 1280.000000"
 preserveAspectRatio="xMidYMid meet">
<metadata>
Created by potrace 1.15, written by Peter Selinger 2001-2017
</metadata>
<g transform="translate(0.000000,1280.000000) scale(0.100000,-0.100000)"
fill="#000000" stroke="none">
<path d="M5338 12360 c-361 -26 -526 -75 -634 -186 -91 -93 -149 -252 -125
-342 10 -35 21 -48 66 -77 61 -39 70 -59 61 -138 -18 -163 -18 -188 -1 -233
l17 -45 -39 -52 c-103 -137 -114 -156 -111 -189 3 -28 12 -39 71 -77 l67 -44
0 -68 c0 -58 3 -70 20 -79 15 -8 18 -17 14 -40 -7 -33 24 -93 57 -110 15 -9
19 -22 19 -64 0 -75 15 -112 51 -125 17 -6 101 -13 188 -17 l158 -7 34 -56
c19 -31 34 -63 34 -71 0 -8 -29 -33 -65 -54 -164 -99 -287 -211 -334 -303 -38
-76 -46 -151 -48 -485 l-3 -305 52 -100 52 -100 7 -129 c5 -92 14 -150 31
-204 48 -154 41 -220 -31 -298 -117 -127 -279 -208 -426 -214 -49 -1 -88 5
-155 26 -76 24 -107 29 -200 29 -179 0 -268 -42 -321 -150 -27 -54 -29 -66
-29 -178 0 -176 43 -317 110 -361 27 -17 43 -16 115 11 161 61 516 122 895
156 210 19 277 38 331 96 l23 24 12 -23 c6 -13 15 -25 19 -28 15 -10 108 -167
155 -260 101 -202 195 -497 219 -687 20 -159 2 -355 -44 -493 -57 -171 -399
-808 -762 -1420 -172 -290 -255 -416 -356 -535 -33 -39 -63 -81 -67 -93 -4
-13 -7 -69 -7 -124 1 -99 1 -102 36 -152 19 -28 42 -67 50 -86 24 -60 39 -233
33 -385 -4 -77 -11 -239 -16 -360 -6 -121 -15 -344 -21 -495 -11 -293 -23
-458 -46 -645 -11 -90 -63 -294 -90 -351 -57 -121 -194 -257 -394 -393 -220
-148 -333 -205 -488 -245 -110 -29 -352 -52 -448 -43 -43 4 -69 2 -90 -9 -101
-53 -47 -123 293 -386 14 -11 53 -22 307 -88 104 -26 194 -47 200 -44 19 6
542 34 653 34 106 0 228 20 407 67 60 16 71 22 89 54 l21 37 -26 39 -26 39 34
110 34 109 -11 130 c-12 153 -16 172 -42 205 -17 23 -19 35 -12 140 12 205 34
392 60 513 27 124 35 149 135 417 107 285 200 567 221 667 11 53 22 100 24
104 3 4 8 38 11 75 3 38 9 73 12 79 3 5 9 169 12 365 5 307 9 362 24 405 26
72 98 176 153 221 27 21 59 50 73 64 14 14 75 66 135 115 152 123 353 294 457
387 l87 79 22 -43 c42 -83 423 -765 527 -943 238 -408 311 -495 453 -531 128
-33 314 4 839 166 379 116 813 222 1125 274 50 9 142 24 205 35 197 33 380 51
526 51 200 0 251 -14 509 -146 160 -81 248 -119 370 -159 89 -29 193 -70 232
-93 93 -53 237 -167 368 -293 l104 -100 40 36 c48 44 65 90 56 153 -8 57 -69
311 -97 407 -57 197 -193 382 -604 826 -223 240 -325 329 -378 329 -19 0 -106
-58 -247 -166 -215 -163 -233 -175 -303 -209 -39 -19 -100 -38 -136 -44 -36
-5 -267 -12 -515 -16 -470 -7 -590 0 -722 40 -73 22 -184 19 -283 -9 -47 -13
-202 -67 -345 -121 -143 -53 -274 -99 -290 -102 -35 -6 -21 -49 -125 382 -34
138 -81 331 -105 430 -52 216 -56 263 -27 325 12 25 22 53 22 62 0 38 -64 190
-159 373 -92 178 -98 194 -85 213 22 32 72 154 90 219 26 97 26 302 -1 410 -4
16 8 36 45 80 28 31 65 87 83 123 29 60 32 76 38 200 9 196 16 212 310 650
191 285 262 402 329 535 196 391 293 803 226 958 -22 52 -84 103 -416 344
-398 289 -432 312 -620 412 -197 106 -260 144 -390 234 -96 67 -131 84 -405
192 -322 127 -411 173 -487 248 -80 80 -93 113 -93 242 l1 110 58 130 c90 200
108 282 112 502 2 190 -2 224 -48 382 -80 271 -329 383 -780 351z m1891 -3215
c318 -105 439 -163 461 -220 10 -26 -2 -111 -46 -325 -46 -223 -91 -368 -153
-495 -32 -66 -73 -151 -91 -188 -38 -82 -117 -181 -240 -302 l-91 -90 -38 42
c-83 93 -111 253 -111 638 0 277 12 444 45 660 20 136 74 335 90 335 3 0 82
-25 174 -55z"/>
</g>
</svg>
