<?xml version="1.0" standalone="no"?>
<!DOCTYPE svg PUBLIC "-//W3C//DTD SVG 20010904//EN"
 "http://www.w3.org/TR/2001/REC-SVG-20010904/DTD/svg10.dtd">
<svg version="1.0" xmlns="http://www.w3.org/2000/svg"
 width="1280.000000pt" height="981.000000pt" viewBox="0 0 1280.000000 981.000000"
 preserveAspectRatio="xMidYMid meet">
<metadata>
Created by potrace 1.15, written by Peter Selinger 2001-2017
</metadata>
<g transform="translate(0.000000,981.000000) scale(0.100000,-0.100000)"
fill="#000000" stroke="none">
<path d="M9760 9804 c-454 -31 -798 -91 -1203 -210 -681 -202 -1401 -592
-1942 -1052 -55 -47 -179 -165 -275 -261 -373 -374 -640 -740 -859 -1181 -109
-220 -161 -349 -271 -675 -106 -316 -154 -446 -231 -626 -285 -670 -673 -1271
-1273 -1974 -397 -464 -1282 -1396 -1355 -1425 -21 -8 -107 -65 -192 -126 -85
-61 -300 -212 -479 -336 -179 -123 -548 -379 -820 -568 -272 -189 -549 -379
-615 -423 -148 -97 -176 -124 -210 -198 -24 -53 -27 -75 -32 -219 -7 -190 2
-226 74 -289 56 -50 430 -241 471 -241 32 0 104 43 127 77 8 12 495 367 1081
790 587 422 1076 778 1088 791 36 39 328 181 736 357 900 389 1901 724 2995
1000 620 156 1368 317 1556 335 677 63 1420 316 2207 752 1076 595 1801 1290
2181 2089 317 666 364 1379 140 2101 -269 865 -1147 1421 -2379 1508 -132 9
-408 11 -520 4z m745 -49 c588 -70 1065 -254 1435 -552 125 -101 298 -289 365
-398 28 -45 13 -28 -41 45 -318 435 -871 735 -1558 845 -274 44 -366 50 -701
49 -350 -1 -501 -13 -800 -64 -235 -40 -251 -42 -165 -20 161 42 533 95 800
114 117 8 541 -4 665 -19z m-1548 -121 c-3 -3 -12 -4 -19 -1 -8 3 -5 6 6 6 11
1 17 -2 13 -5z m1063 -261 c14 -9 37 -26 52 -38 l26 -22 -123 -87 c-68 -47
-130 -88 -137 -91 -14 -5 -208 139 -208 153 0 4 29 26 63 49 62 42 64 42 162
46 55 1 109 4 120 5 11 1 32 -6 45 -15z m170 7 c0 -3 -16 -15 -36 -28 l-35
-23 -29 23 c-16 13 -29 27 -29 31 -1 5 28 7 64 5 36 -1 65 -5 65 -8z m328 -21
c83 -10 101 -14 90 -24 -7 -7 -68 -51 -135 -98 l-122 -86 -100 77 c-55 42
-100 80 -101 83 0 4 21 21 48 38 46 32 49 32 132 27 47 -3 131 -11 188 -17z
m-866 -19 c-23 -16 -45 -30 -48 -30 -3 0 -20 10 -37 23 l-32 22 50 6 c28 3 63
7 79 7 29 2 29 2 -12 -28z m-112 -21 l35 -30 -30 -22 c-16 -12 -65 -47 -110
-78 l-80 -57 -104 82 c-78 60 -99 82 -85 85 71 14 293 49 314 50 14 0 40 -13
60 -30z m1290 -15 c69 -14 126 -27 128 -28 1 -2 -88 -67 -198 -145 l-200 -142
-90 68 c-49 37 -89 71 -90 75 0 4 64 52 143 107 96 68 148 98 162 95 11 -2 76
-16 145 -30z m-1610 -101 c61 -48 107 -90 103 -93 -5 -4 -55 -39 -111 -79 -68
-47 -108 -69 -115 -63 -127 98 -207 165 -202 170 7 7 209 151 212 152 2 0 52
-39 113 -87z m998 17 c50 -39 94 -75 97 -80 5 -7 -244 -190 -259 -190 -3 0
-51 35 -105 79 l-100 78 132 92 c72 50 135 91 138 91 4 0 47 -32 97 -70z
m-1204 40 c-5 -5 -41 -31 -79 -59 l-70 -49 -37 27 c-21 14 -38 28 -38 31 0 4
195 55 225 59 5 1 5 -3 -1 -9z m687 -67 c54 -43 98 -81 99 -84 0 -7 -206 -151
-217 -150 -15 0 -204 153 -198 159 9 9 209 151 214 152 2 0 47 -35 102 -77z
m1430 28 c63 -22 129 -46 148 -54 l33 -14 -250 -177 c-138 -97 -254 -176 -256
-176 -13 0 -216 165 -213 173 5 15 391 286 408 286 9 1 68 -17 130 -38z
m-2337 -50 c20 -16 36 -33 35 -38 -1 -4 -44 -39 -96 -76 l-95 -68 -76 59 c-43
33 -77 64 -77 68 0 9 225 82 256 83 9 1 33 -12 53 -28z m2677 -92 c65 -33 119
-64 119 -67 0 -8 -510 -372 -540 -386 -14 -6 -40 9 -120 72 l-101 81 173 122
c95 67 209 148 253 180 44 32 84 58 88 58 5 1 62 -26 128 -60z m-1023 -38 c45
-35 82 -67 82 -70 -1 -5 -51 -41 -248 -178 -15 -10 -30 -2 -105 57 -48 38 -88
73 -88 77 -1 13 255 191 266 185 6 -4 47 -35 93 -71z m-1930 7 c42 -34 81 -65
85 -68 5 -4 -39 -42 -98 -84 l-107 -77 -46 36 c-26 21 -79 63 -119 93 -58 46
-69 58 -56 66 13 7 250 94 261 95 2 1 38 -27 80 -61z m458 -20 c83 -65 102
-84 92 -94 -7 -7 -53 -40 -101 -73 -58 -41 -93 -59 -100 -53 -7 5 -56 44 -110
86 l-98 78 97 69 c54 38 102 69 106 69 5 0 56 -37 114 -82z m532 -51 c29 -22
51 -41 50 -42 -2 -2 -52 -37 -112 -79 -66 -45 -114 -72 -120 -67 -6 4 -53 41
-104 80 l-92 73 112 78 112 79 50 -41 c28 -22 75 -59 104 -81z m424 33 c53
-41 97 -77 97 -80 0 -3 -49 -38 -109 -79 -70 -47 -113 -70 -122 -65 -46 27
-188 148 -181 155 18 18 208 148 214 146 3 -1 49 -36 101 -77z m-1679 -112
c64 -50 117 -94 116 -97 0 -3 -47 -39 -105 -79 l-105 -73 -144 113 c-79 62
-144 116 -145 120 0 8 229 107 251 107 8 1 68 -40 132 -91z m3470 33 c48 -33
98 -68 111 -78 l24 -19 -281 -199 c-154 -109 -287 -198 -294 -199 -17 -1 -223
157 -215 165 25 23 549 389 558 389 5 0 49 -27 97 -59z m-2989 -53 c50 -39 97
-77 105 -84 11 -10 -7 -26 -95 -88 -92 -65 -110 -74 -123 -63 -9 7 -58 46
-108 86 l-93 73 103 73 c56 41 106 74 111 74 4 1 49 -31 100 -71z m1940 -13
c58 -44 105 -82 105 -85 0 -3 -61 -47 -135 -98 -93 -65 -138 -91 -147 -85 -6
6 -56 45 -111 89 -90 71 -97 79 -80 91 11 7 69 48 129 92 61 44 116 79 122 78
7 -1 60 -38 117 -82z m-1476 -12 c47 -38 93 -73 100 -79 12 -9 -5 -25 -88 -82
-61 -42 -108 -68 -114 -64 -6 5 -53 41 -104 81 l-92 73 97 68 c54 38 102 69
107 69 4 1 47 -29 94 -66z m582 -94 c0 -3 -49 -39 -109 -81 l-109 -76 -102 80
-101 80 112 78 111 79 99 -77 c54 -42 98 -80 99 -83z m363 84 c47 -38 85 -72
85 -78 0 -9 -197 -156 -208 -155 -3 1 -46 34 -97 74 l-92 73 107 76 c59 41
110 76 113 76 3 1 44 -29 92 -66z m-2160 -89 c81 -64 147 -119 147 -122 -1 -4
-48 -40 -105 -80 l-105 -74 -170 133 c-93 73 -168 135 -165 137 6 6 238 121
245 121 3 1 72 -51 153 -115z m3997 -25 c49 -44 90 -82 90 -84 0 -5 -537 -385
-552 -390 -13 -5 -208 140 -208 153 1 10 552 400 567 401 7 1 53 -35 103 -80z
m-3473 -31 c83 -65 101 -84 91 -93 -7 -7 -56 -42 -108 -78 l-95 -65 -100 80
c-55 44 -100 85 -100 90 0 10 183 146 199 147 4 1 55 -36 113 -81z m466 -9
c51 -40 96 -75 100 -79 12 -11 -205 -161 -218 -151 -5 4 -52 41 -103 81 l-93
72 103 73 c57 41 107 74 111 74 5 1 50 -31 100 -70z m1942 -11 c52 -40 93 -76
92 -80 -1 -4 -60 -48 -131 -99 -117 -84 -131 -91 -150 -79 -45 28 -186 144
-184 151 6 17 254 187 266 183 8 -2 56 -37 107 -76z m-1475 -15 l99 -77 -97
-68 c-53 -37 -101 -69 -106 -70 -8 -3 -205 142 -205 152 -1 6 191 139 202 140
5 0 53 -35 107 -77z m460 5 c50 -39 90 -74 90 -77 0 -7 -173 -131 -201 -145
-13 -6 -37 7 -103 59 -47 36 -88 70 -91 75 -4 6 197 157 213 160 1 0 43 -32
92 -72z m476 -9 c57 -45 104 -85 104 -88 0 -7 -205 -151 -215 -151 -11 0 -210
161 -210 170 0 10 195 150 208 150 5 0 55 -37 113 -81z m-2651 -63 c91 -71
165 -132 165 -135 -1 -10 -210 -153 -218 -149 -28 11 -361 283 -355 289 16 14
228 129 236 126 4 -1 81 -60 172 -131z m4399 -13 c67 -76 127 -154 124 -163
-2 -5 -115 -88 -252 -184 l-249 -175 -76 59 c-133 104 -138 109 -121 120 8 5
132 92 275 194 143 102 261 185 263 186 1 0 17 -17 36 -37z m-3856 -54 c57
-45 101 -83 99 -86 -18 -17 -204 -143 -212 -143 -15 0 -200 148 -200 160 0 11
184 148 200 149 6 0 56 -36 113 -80z m470 -13 c51 -41 93 -78 93 -82 1 -3 -46
-39 -102 -79 l-103 -72 -76 58 c-41 32 -88 69 -103 82 l-28 22 103 72 c57 40
108 72 113 72 6 1 52 -33 103 -73z m-1269 -81 c99 -77 180 -142 180 -145 1 -3
-23 -22 -52 -42 -28 -20 -75 -53 -104 -73 l-52 -37 -186 147 c-102 80 -185
149 -185 153 0 9 203 141 212 139 4 -1 88 -65 187 -142z m1737 70 c52 -42 92
-80 89 -85 -8 -14 -194 -140 -205 -140 -14 0 -203 151 -197 156 14 14 203 143
210 144 4 0 51 -34 103 -75z m1935 -6 c57 -44 104 -84 104 -89 0 -5 -58 -50
-130 -101 -115 -81 -131 -90 -149 -79 -11 7 -60 44 -109 83 -58 45 -85 73 -79
79 9 9 254 187 258 188 1 0 48 -36 105 -81z m-1393 -85 c-2 -1 -48 -34 -102
-73 l-99 -69 -66 51 c-37 29 -79 62 -94 73 -15 12 -27 24 -27 27 0 3 45 37
101 76 l101 70 94 -76 c52 -42 93 -77 92 -79z m386 71 c58 -44 105 -82 105
-85 0 -8 -207 -150 -219 -150 -11 0 -210 154 -213 165 -3 8 206 156 215 152 4
-1 55 -38 112 -82z m482 -16 l104 -82 -111 -78 -111 -78 -101 81 c-56 44 -103
82 -105 83 -4 3 208 155 216 155 2 0 51 -37 108 -81z m1852 36 c-3 -3 -9 2
-12 12 -6 14 -5 15 5 6 7 -7 10 -15 7 -18z m-4438 -149 c56 -43 100 -79 98
-81 -2 -1 -51 -36 -110 -78 l-107 -76 -106 84 -106 83 108 76 c59 42 111 75
115 74 4 -2 53 -38 108 -82z m4480 49 c0 -5 -5 -3 -10 5 -5 8 -10 20 -10 25 0
6 5 3 10 -5 5 -8 10 -19 10 -25z m-3997 -69 c99 -79 105 -58 -42 -161 -96 -67
-77 -70 -207 32 -47 37 -81 70 -77 74 5 5 53 40 108 78 81 56 103 67 116 57 8
-6 54 -42 102 -80z m-1288 -62 c102 -81 185 -150 183 -155 -4 -11 -199 -149
-210 -149 -15 0 -369 282 -366 291 2 6 198 158 205 159 2 0 86 -66 188 -146z
m-655 133 c0 -2 -12 -14 -27 -28 l-28 -24 24 28 c23 25 31 32 31 24z m2395
-69 c52 -40 94 -76 94 -80 1 -7 -178 -134 -201 -143 -17 -7 -212 145 -201 155
21 20 198 140 206 140 5 0 51 -33 102 -72z m465 -10 c50 -39 87 -75 83 -79 -5
-4 -53 -39 -107 -78 l-100 -70 -50 41 c-28 22 -70 55 -93 72 -23 17 -42 34
-43 38 0 10 192 147 208 147 7 1 53 -31 102 -71z m463 -22 c53 -42 97 -78 97
-80 0 -2 -45 -36 -100 -76 l-100 -71 -110 87 c-61 48 -109 88 -108 90 30 29
205 141 213 135 5 -4 54 -42 108 -85z m1488 7 c54 -43 99 -81 99 -84 0 -13
-263 -190 -275 -185 -19 7 -195 147 -195 155 1 5 259 190 268 191 2 0 48 -35
103 -77z m953 -6 c29 -45 60 -96 69 -113 l16 -31 -209 -146 c-115 -81 -211
-147 -214 -147 -3 0 -55 39 -116 86 l-109 87 177 125 c97 69 206 147 242 173
36 26 71 48 78 48 7 1 36 -36 66 -82z m-1955 -16 l94 -74 -29 -24 c-16 -13
-66 -48 -110 -79 l-82 -56 -100 79 c-55 43 -101 81 -101 85 -2 14 211 158 223
151 6 -4 53 -41 105 -82z m467 -3 c57 -46 104 -86 104 -89 0 -9 -199 -149
-211 -149 -5 0 -56 37 -113 82 l-104 82 106 77 c59 43 109 78 110 78 2 1 51
-36 108 -81z m-4502 -100 c-294 -301 -520 -594 -696 -903 -133 -234 -256 -527
-309 -739 -24 -98 -28 -110 -34 -104 -7 7 58 239 98 348 136 371 352 736 642
1087 79 95 441 473 453 473 3 0 -67 -73 -154 -162z m1450 -8 c47 -36 85 -68
86 -72 0 -7 -196 -148 -206 -148 -11 0 -199 152 -199 160 0 5 45 41 99 80 86
61 102 68 117 58 10 -7 56 -42 103 -78z m479 -13 l87 -69 -105 -74 c-59 -41
-111 -74 -116 -74 -13 0 -197 142 -198 152 -1 4 47 41 105 82 90 64 109 73
123 63 10 -7 56 -43 104 -80z m520 -50 c15 -12 27 -24 27 -27 0 -3 -47 -39
-105 -79 l-106 -73 -72 56 c-40 31 -85 66 -101 79 l-29 24 108 76 108 76 71
-56 c39 -31 83 -65 99 -76z m-1626 -169 c-1 -4 -47 -39 -101 -78 -86 -60 -102
-68 -115 -56 -9 7 -81 64 -161 126 -80 62 -151 119 -159 126 -15 14 7 37 127
138 l43 35 184 -142 c101 -78 183 -145 182 -149z m2026 209 c48 -38 87 -70 87
-72 0 -7 -202 -145 -212 -145 -12 0 -188 139 -188 148 1 13 205 150 215 144 6
-3 49 -37 98 -75z m500 -36 c37 -29 67 -56 67 -59 -1 -4 -48 -40 -106 -79
l-105 -73 -110 87 c-110 87 -111 88 -88 103 13 8 61 43 108 76 l86 62 40 -32
c22 -18 70 -56 108 -85z m440 -2 l98 -78 -101 -71 c-55 -40 -106 -70 -113 -67
-22 9 -192 149 -192 159 0 14 188 146 200 139 6 -3 54 -40 108 -82z m1483 10
c57 -45 104 -83 104 -85 0 -1 -61 -46 -136 -98 -80 -57 -140 -94 -147 -89 -7
4 -54 40 -105 81 -76 62 -91 77 -80 88 14 14 250 183 257 184 2 0 50 -37 107
-81z m-1006 -19 c52 -41 97 -76 100 -78 6 -4 -19 -24 -131 -101 l-86 -60 -106
82 c-58 45 -106 84 -106 87 0 12 215 156 224 150 6 -3 53 -39 105 -80z m468
-6 c53 -42 98 -80 100 -84 2 -4 -45 -42 -103 -83 l-107 -76 -101 81 c-56 45
-101 83 -100 85 2 5 206 151 211 152 2 1 47 -33 100 -75z m1414 -86 c31 -68
70 -163 88 -213 30 -86 32 -95 27 -195 -6 -108 -25 -232 -53 -355 -19 -80 -24
-91 -33 -76 -5 7 -29 -5 -68 -34 l-61 -44 -106 84 -106 84 142 100 141 99 43
-34 c29 -24 44 -31 50 -23 4 7 -8 24 -31 43 l-37 32 51 34 c28 19 51 41 51 48
0 19 -10 15 -70 -27 l-56 -40 -97 76 c-53 42 -97 78 -97 82 0 3 61 48 135 100
74 52 135 97 135 101 0 22 -25 9 -147 -77 -75 -53 -142 -96 -149 -97 -20 -2
-224 158 -215 167 13 13 395 285 402 286 3 1 31 -54 61 -121z m-4949 6 c53
-42 97 -80 97 -84 0 -7 -181 -137 -204 -146 -15 -6 -208 139 -205 153 1 8 199
153 209 153 3 0 49 -34 103 -76z m476 -22 l94 -75 -24 -18 c-13 -10 -61 -44
-106 -75 -73 -50 -84 -55 -100 -43 -64 47 -183 143 -183 148 1 12 205 148 215
143 6 -3 52 -39 104 -80z m462 1 c54 -43 99 -80 99 -83 -1 -5 -195 -142 -211
-148 -9 -4 -194 138 -198 151 -2 7 192 152 208 156 1 1 48 -34 102 -76z m465
-8 c52 -42 94 -77 94 -79 0 -7 -200 -146 -209 -146 -14 0 -192 142 -189 151 3
7 197 147 206 149 2 0 46 -34 98 -75z m482 -24 c50 -40 90 -76 87 -81 -3 -4
-50 -39 -104 -78 l-100 -70 -110 86 -110 86 62 44 c34 25 82 60 107 78 37 27
48 30 60 20 8 -7 57 -45 108 -85z m-2645 -60 c86 -68 157 -124 157 -126 0 -2
-45 -36 -100 -75 l-99 -71 -156 121 c-85 67 -155 125 -155 128 0 4 37 44 82
89 70 71 84 81 98 69 8 -7 86 -68 173 -135z m3115 48 l103 -81 -98 -70 c-54
-38 -103 -72 -110 -75 -7 -3 -59 32 -117 77 l-106 83 103 72 c56 40 107 74
112 74 6 0 56 -36 113 -80z m472 -26 c114 -90 118 -69 -27 -169 l-82 -56 -106
82 c-66 52 -102 87 -96 93 31 31 188 135 199 132 7 -3 57 -40 112 -82z m1495
2 c57 -44 104 -82 104 -85 0 -10 -261 -185 -275 -185 -14 0 -223 155 -223 165
0 10 265 189 277 187 7 -1 60 -38 117 -82z m-1017 -12 c50 -41 92 -76 92 -78
0 -5 -196 -144 -209 -147 -13 -3 -211 143 -208 154 4 15 212 155 222 150 6 -3
52 -39 103 -79z m465 -4 c56 -44 103 -84 104 -87 1 -4 -41 -36 -93 -72 -52
-36 -101 -69 -108 -74 -8 -6 -46 18 -119 75 l-106 84 51 35 c28 19 76 54 107
77 31 23 57 42 59 42 1 1 48 -35 105 -80z m-3999 -79 c47 -36 85 -68 86 -71 0
-3 -46 -37 -102 -76 l-103 -70 -102 80 -103 80 103 73 c86 61 105 71 119 61 9
-7 55 -41 102 -77z m461 1 c52 -41 95 -77 95 -80 0 -7 -205 -151 -214 -151 -3
0 -51 35 -106 79 l-99 78 107 76 c59 42 110 75 114 74 4 -1 50 -35 103 -76z
m468 -14 c48 -38 87 -73 87 -77 0 -15 -204 -149 -214 -142 -66 49 -186 147
-186 151 0 12 205 149 215 143 6 -3 49 -37 98 -75z m465 -2 c50 -38 91 -73 92
-77 0 -4 -48 -40 -107 -82 l-106 -75 -66 52 c-140 110 -137 107 -121 117 8 5
58 38 110 74 52 37 97 65 101 64 4 -2 47 -34 97 -73z m499 -35 c40 -30 72 -58
72 -62 1 -4 -45 -39 -100 -79 -95 -67 -103 -71 -124 -58 -42 26 -195 149 -194
157 0 4 46 39 102 78 l102 71 35 -26 c20 -14 68 -51 107 -81z m452 -1 l101
-81 -22 -17 c-104 -79 -189 -131 -202 -124 -29 17 -195 148 -195 155 -1 9 191
147 205 147 6 1 57 -35 113 -80z m-3094 -47 c80 -63 145 -117 145 -120 0 -4
-43 -37 -95 -74 l-95 -68 -128 101 c-70 55 -128 104 -130 109 -4 12 138 172
149 168 5 -2 74 -54 154 -116z m3628 -16 c20 -16 37 -32 37 -36 0 -5 -160
-122 -198 -144 -10 -6 -137 84 -210 149 -11 10 8 27 94 88 l107 77 66 -52 c36
-28 83 -65 104 -82z m408 25 l99 -79 -101 -72 c-90 -64 -104 -72 -121 -61 -37
23 -188 144 -188 150 1 8 191 141 202 141 5 0 54 -36 109 -79z m507 -33 l72
-57 -107 -76 c-59 -42 -113 -73 -121 -70 -17 6 -201 148 -201 155 0 3 48 39
107 81 l107 76 35 -26 c19 -14 68 -51 108 -83z m995 31 c56 -45 102 -85 102
-89 0 -5 -61 -51 -135 -103 l-135 -94 -75 58 c-41 32 -90 71 -109 87 l-34 28
134 96 c74 53 137 97 142 97 4 1 53 -35 110 -80z m-543 -25 l110 -87 -106 -74
c-81 -57 -110 -73 -124 -67 -23 12 -209 157 -209 164 0 7 202 149 212 149 4 1
57 -38 117 -85z m-4486 -40 c53 -42 94 -80 89 -84 -4 -4 -51 -36 -103 -72
l-95 -66 -95 76 c-52 41 -95 79 -95 83 0 11 176 138 191 139 6 0 54 -34 108
-76z m464 -19 c50 -38 91 -72 91 -75 0 -7 -196 -140 -206 -140 -12 0 -195 146
-195 154 1 16 196 145 208 138 6 -4 52 -38 102 -77z m450 8 c47 -38 93 -73
100 -79 12 -9 -7 -26 -96 -88 l-111 -77 -101 80 -100 79 107 76 c60 42 110 76
112 76 2 0 42 -30 89 -67z m467 -14 c50 -38 94 -74 98 -78 8 -8 -184 -151
-204 -151 -5 0 -52 34 -105 76 l-95 76 38 27 c21 15 67 48 103 74 36 25 67 46
70 47 3 0 46 -32 95 -71z m484 -15 l110 -87 -111 -78 -110 -78 -109 86 -109
86 63 45 c34 25 82 60 107 78 25 18 46 34 47 34 2 0 52 -39 112 -86z m480 -21
c55 -43 100 -80 100 -83 1 -3 -46 -38 -104 -78 -93 -65 -107 -72 -123 -60
-103 75 -192 152 -184 160 24 24 188 137 199 138 7 0 58 -35 112 -77z m484
-26 c48 -38 87 -72 87 -76 0 -6 -144 -112 -196 -143 -7 -5 -54 25 -118 76
l-107 84 107 76 c90 64 109 73 123 63 10 -7 56 -43 104 -80z m-3505 -55 c50
-40 92 -75 92 -77 0 -6 -182 -135 -192 -135 -19 0 -197 146 -192 158 2 7 32
51 66 97 l63 83 35 -26 c19 -14 77 -59 128 -100z m3972 44 l99 -78 -105 -75
c-58 -41 -111 -72 -117 -70 -16 6 -191 147 -194 155 -3 9 199 152 210 149 4
-1 52 -37 107 -81z m459 -13 c55 -43 100 -81 100 -84 1 -6 -182 -137 -197
-141 -6 -2 -56 33 -112 76 -84 65 -99 81 -88 92 19 19 182 133 190 134 5 0 53
-35 107 -77z m490 -20 c55 -43 100 -81 101 -85 0 -5 -160 -122 -205 -150 -6
-4 -61 33 -122 81 l-112 88 107 76 c59 42 113 74 119 72 7 -2 57 -39 112 -82z
m1022 10 c54 -43 95 -80 91 -84 -4 -3 -66 -47 -139 -98 -85 -60 -137 -90 -145
-85 -48 30 -188 148 -181 154 12 12 267 190 272 190 1 0 48 -35 102 -77z
m-498 -63 c37 -30 64 -57 60 -60 -5 -4 -54 -38 -109 -77 l-101 -71 -107 84
c-58 47 -106 87 -106 89 0 2 48 38 106 80 l107 75 41 -33 c22 -18 71 -57 109
-87z m-4993 19 c50 -40 87 -75 83 -79 -32 -28 -186 -130 -193 -128 -16 6 -189
143 -190 150 0 13 184 139 196 134 7 -3 54 -37 104 -77z m463 -23 l88 -68 -98
-69 c-54 -38 -102 -69 -108 -69 -15 0 -197 147 -194 156 1 5 46 39 98 75 78
54 99 65 111 55 9 -6 55 -42 103 -80z m444 -2 c54 -43 99 -78 100 -79 2 -1
-45 -34 -103 -74 l-105 -73 -72 56 c-40 31 -85 66 -101 79 l-29 23 99 71 c54
39 102 72 106 72 3 1 50 -33 105 -75z m468 -6 c52 -40 94 -76 94 -80 1 -9
-197 -148 -210 -148 -14 0 -198 143 -196 152 3 9 199 148 210 148 5 0 51 -33
102 -72z m544 -76 l34 -28 -103 -73 c-57 -40 -109 -70 -117 -67 -7 3 -58 40
-112 83 l-99 77 61 45 c34 24 82 58 106 76 l45 33 75 -59 c42 -32 91 -71 110
-87z m407 46 c57 -45 104 -84 104 -87 0 -7 -174 -131 -201 -145 -13 -6 -41 10
-123 75 l-106 83 51 35 c28 20 77 55 108 78 31 23 57 42 59 42 2 1 50 -36 108
-81z m478 -22 l106 -84 -101 -71 c-56 -40 -105 -73 -108 -74 -11 -3 -212 156
-209 164 3 7 197 149 204 149 1 0 50 -38 108 -84z m474 -17 l102 -80 -106 -76
c-74 -52 -111 -73 -120 -67 -41 28 -193 150 -194 154 0 5 202 149 210 150 3 0
51 -37 108 -81z m456 -1 c50 -39 97 -77 104 -83 11 -10 -8 -27 -94 -88 l-107
-76 -76 59 c-42 33 -89 70 -105 83 l-30 24 68 49 c38 27 85 61 105 76 20 15
38 27 40 27 2 1 44 -31 95 -71z m489 -38 l108 -84 -23 -18 c-99 -75 -189 -130
-200 -121 -7 5 -57 45 -111 88 l-97 77 102 74 c57 40 105 72 108 71 3 -1 54
-40 113 -87z m-4804 -71 c1 -3 -42 -36 -94 -73 l-94 -67 -58 47 c-32 26 -60
48 -61 50 -2 1 24 45 58 98 l61 95 94 -72 c52 -40 94 -75 94 -78z m5291 54
l110 -86 -111 -78 -111 -78 -77 59 c-42 33 -91 72 -109 87 l-33 28 108 77 c59
42 109 77 110 77 2 1 52 -38 113 -86z m-4941 6 c50 -40 91 -75 91 -79 0 -4
-43 -37 -95 -74 l-95 -67 -96 75 c-52 41 -95 77 -95 81 0 9 174 134 188 135 6
0 52 -32 102 -71z m464 -32 l87 -69 -22 -17 c-13 -10 -58 -41 -100 -70 l-77
-53 -101 78 c-55 43 -100 81 -100 84 1 3 45 35 98 71 78 53 100 64 113 55 8
-6 54 -42 102 -79z m5000 -25 c26 -20 47 -39 47 -42 -1 -3 -48 -38 -105 -78
-66 -46 -110 -70 -117 -66 -51 31 -188 148 -181 155 5 5 53 40 108 78 l99 70
50 -41 c28 -22 72 -57 99 -76z m-4545 9 c45 -35 82 -67 82 -70 0 -3 -45 -37
-101 -74 -68 -47 -104 -66 -112 -59 -86 67 -174 136 -180 142 -5 4 37 40 94
78 86 60 104 69 118 59 9 -7 54 -41 99 -76z m447 -6 c52 -42 95 -78 95 -80 0
-1 -45 -35 -100 -75 -88 -62 -102 -69 -118 -58 -67 48 -182 142 -182 148 0 8
190 140 202 140 5 0 51 -34 103 -75z m484 -20 c50 -38 90 -73 91 -76 0 -12
-204 -150 -216 -145 -6 2 -57 40 -112 82 l-100 78 61 45 c34 24 82 59 107 77
37 27 48 31 62 21 9 -7 57 -43 107 -82z m485 -25 c47 -36 85 -67 85 -70 1 -6
-186 -139 -204 -146 -6 -3 -59 33 -117 79 l-107 83 107 76 c103 73 108 75 129
59 12 -9 60 -45 107 -81z m451 9 c50 -39 96 -76 103 -83 10 -10 -8 -27 -97
-90 l-110 -77 -101 80 c-55 44 -102 83 -103 86 -2 6 203 155 213 155 3 0 46
-32 95 -71z m484 -26 c55 -43 100 -80 100 -83 0 -3 -47 -38 -105 -77 l-105
-73 -105 82 c-57 44 -103 82 -101 84 12 12 204 144 209 144 5 0 53 -35 107
-77z m467 -14 c57 -45 104 -83 104 -85 0 -6 -202 -144 -211 -144 -12 0 -208
151 -208 160 0 4 198 147 208 149 2 1 50 -36 107 -80z m480 -20 c57 -45 104
-85 104 -89 0 -5 -149 -114 -197 -143 -9 -5 -50 20 -124 79 l-110 86 38 27
c139 100 169 120 176 121 5 0 55 -37 113 -81z m-4433 -12 c61 -49 85 -73 78
-81 -5 -6 -48 -38 -95 -70 l-86 -59 -43 34 c-24 19 -66 52 -95 74 -28 22 -50
43 -49 47 4 16 182 136 192 130 5 -3 49 -37 98 -75z m5013 -106 c-3 -3 -49
-37 -105 -75 l-100 -69 -105 83 c-58 45 -106 85 -106 89 1 3 47 38 103 77
l102 71 107 -85 c59 -47 106 -88 104 -91z m-4571 90 c52 -40 95 -76 95 -80 0
-6 -172 -129 -188 -133 -13 -4 -203 144 -199 155 4 12 180 136 189 134 4 -1
50 -35 103 -76z m5044 -91 c0 -13 -212 -151 -225 -146 -7 3 -54 38 -103 77
l-90 72 110 78 111 78 99 -77 c54 -42 98 -79 98 -82z m-4581 61 c45 -35 82
-67 82 -70 -1 -9 -188 -136 -197 -134 -13 4 -193 146 -193 152 0 3 44 36 97
73 80 56 99 65 112 55 9 -7 54 -41 99 -76z m4955 9 c53 -41 96 -78 97 -82 0
-9 -194 -148 -208 -148 -5 0 -56 36 -111 79 l-102 80 108 76 c59 41 110 74
113 73 3 -2 49 -37 103 -78z m-6258 26 l54 -43 -101 -72 c-84 -61 -103 -70
-114 -59 -11 11 -5 30 43 116 31 56 58 102 60 102 2 0 28 -20 58 -44z m1746
-42 c54 -43 99 -80 99 -83 -1 -9 -187 -136 -199 -136 -15 0 -202 147 -199 156
3 8 188 139 196 139 2 0 48 -34 103 -76z m469 -22 c52 -41 95 -78 95 -83 0 -5
-45 -41 -99 -79 l-99 -69 -66 51 c-36 29 -85 68 -108 86 l-43 34 103 73 c56
40 107 70 112 67 6 -3 53 -39 105 -80z m478 -17 c55 -44 100 -83 99 -87 -2 -8
-199 -148 -207 -148 -9 0 -210 161 -210 168 1 9 203 151 211 149 3 -1 51 -38
107 -82z m484 -26 l97 -76 -27 -20 c-15 -11 -64 -45 -108 -76 l-81 -57 -106
84 -105 84 106 75 c58 42 110 73 116 69 6 -3 55 -41 108 -83z m530 -52 c21
-17 35 -33 32 -38 -8 -14 -206 -150 -213 -147 -20 8 -200 154 -198 160 1 4 49
41 107 81 l105 75 65 -51 c36 -28 82 -64 102 -80z m2814 106 c-3 -10 -15 -49
-27 -88 -34 -114 -107 -291 -176 -430 -342 -689 -944 -1324 -1715 -1809 -137
-87 -384 -226 -399 -226 -11 0 -369 281 -369 290 0 13 191 142 203 137 6 -3
95 -71 197 -151 102 -80 189 -146 193 -146 28 0 -20 45 -186 175 -104 81 -187
148 -185 150 2 1 47 34 101 73 l99 70 166 -130 c92 -72 184 -144 205 -161 25
-19 42 -26 48 -20 6 6 -60 64 -186 162 -107 84 -197 156 -200 161 -5 8 186
150 200 150 4 0 97 -70 207 -156 129 -100 204 -152 210 -146 6 6 -62 66 -192
167 l-201 157 103 73 c87 62 105 71 118 60 8 -7 96 -76 195 -154 124 -97 182
-138 189 -131 8 8 8 13 0 18 -68 45 -373 296 -367 302 45 41 209 148 217 141
6 -4 87 -68 180 -141 158 -124 190 -145 198 -129 2 4 -76 68 -172 144 -96 75
-179 140 -183 145 -7 6 140 118 201 154 8 5 69 -37 170 -115 86 -67 163 -127
170 -132 8 -6 16 -7 22 -1 6 6 -54 59 -155 138 -91 71 -165 132 -165 136 0 3
45 39 100 78 l100 72 139 -110 c129 -103 161 -123 161 -102 0 5 -61 57 -135
116 -75 59 -133 111 -130 116 9 14 193 142 202 141 4 -1 56 -40 116 -86 59
-47 112 -85 117 -85 25 0 2 25 -100 106 -60 48 -108 89 -106 91 1 2 50 36 106
77 l104 73 80 -63 c52 -40 83 -59 87 -52 4 7 -23 36 -67 71 -42 33 -72 63 -67
67 20 19 194 140 199 140 4 0 22 -11 40 -25 23 -17 35 -22 40 -14 4 7 -4 20
-19 31 -15 11 -27 23 -27 28 0 5 36 34 80 65 75 53 95 75 69 75 -7 0 -50 -27
-96 -60 l-84 -61 -105 82 c-58 46 -107 85 -109 88 -1 3 46 41 106 83 l110 78
93 -75 c51 -41 98 -75 105 -75 25 0 7 22 -74 84 -46 37 -87 70 -90 76 -6 10
185 150 205 150 7 0 26 -12 42 -26 44 -36 60 -15 18 23 l-33 29 49 37 c55 41
68 45 60 20z m-2407 -73 c55 -44 101 -82 101 -84 0 -6 -199 -146 -206 -146
-13 0 -204 155 -201 164 3 9 187 144 198 145 4 1 52 -35 108 -79z m-3943 -11
c49 -39 90 -74 92 -78 1 -4 -42 -38 -97 -75 l-99 -68 -96 77 -96 77 97 69 c53
38 100 69 104 69 3 0 46 -32 95 -71z m4409 0 c50 -39 97 -77 105 -85 16 -16
23 -10 -111 -103 l-86 -60 -111 86 -111 87 57 41 c111 80 147 104 157 104 6 1
51 -31 100 -70z m-3970 -20 c50 -38 94 -74 98 -78 7 -7 -171 -141 -188 -141
-9 0 -195 151 -195 159 0 8 172 130 185 130 6 1 51 -31 100 -70z m4461 -10
c57 -45 104 -85 104 -89 0 -5 -149 -114 -197 -143 -9 -6 -47 19 -118 75 -58
46 -105 85 -105 88 0 5 201 149 209 150 2 0 50 -37 107 -81z m-4011 -10 c50
-39 94 -74 98 -78 11 -10 -182 -143 -199 -137 -16 6 -196 148 -192 151 13 12
194 135 198 135 3 0 46 -32 95 -71z m4480 -10 c50 -39 91 -74 93 -78 1 -5 -43
-41 -99 -80 l-101 -72 -72 56 c-126 97 -133 104 -116 114 8 6 53 37 100 70 47
33 90 60 95 60 6 1 51 -31 100 -70z m474 -6 c55 -43 100 -81 100 -85 2 -15
-212 -158 -223 -149 -158 121 -196 155 -186 165 17 17 194 144 202 145 5 1 53
-34 107 -76z m-4494 -12 c52 -41 95 -77 95 -80 0 -3 -44 -37 -96 -74 l-96 -68
-71 55 c-40 30 -87 68 -105 83 l-34 28 98 68 c54 37 102 66 106 65 4 -2 50
-36 103 -77z m461 -22 c57 -44 104 -82 104 -84 0 -2 -45 -35 -100 -75 l-100
-71 -105 83 c-58 45 -104 85 -103 90 4 9 180 136 191 137 5 1 56 -35 113 -80z
m469 -21 c58 -45 104 -85 103 -89 -2 -5 -47 -39 -101 -78 l-99 -70 -108 86
-109 86 102 73 c56 40 103 73 104 74 2 0 50 -37 108 -82z m473 -15 c54 -43 99
-82 101 -87 1 -5 -43 -41 -100 -81 l-103 -72 -103 80 c-57 44 -103 83 -103 86
0 5 201 151 207 151 2 0 47 -35 101 -77z m-3098 63 c0 -3 -4 -8 -10 -11 -5 -3
-10 -1 -10 4 0 6 5 11 10 11 6 0 10 -2 10 -4z m3585 -88 c52 -40 94 -75 94
-78 0 -7 -202 -145 -213 -145 -13 0 -205 149 -203 157 5 16 202 148 215 143 7
-3 56 -38 107 -77z m468 -4 c53 -42 97 -80 97 -84 0 -10 -198 -150 -211 -150
-10 0 -208 152 -208 160 0 7 202 148 214 149 6 1 54 -33 108 -75z m-3925 -8
l92 -74 -115 -82 -116 -81 -55 41 c-30 24 -54 46 -54 50 0 4 13 40 30 81 28
70 85 139 114 139 6 0 53 -33 104 -74z m4427 -36 c39 -30 70 -59 71 -65 1 -10
-184 -145 -199 -145 -9 0 -211 159 -214 168 -1 4 44 39 100 78 l102 72 35 -26
c19 -15 67 -51 105 -82z m-3984 23 c54 -43 98 -80 98 -83 0 -3 -45 -36 -99
-73 -62 -42 -105 -65 -113 -60 -21 13 -182 145 -184 152 -2 5 186 141 196 141
2 0 47 -35 102 -77z m492 -61 c26 -20 47 -39 47 -43 0 -3 -43 -36 -95 -73
l-96 -67 -92 72 c-51 39 -96 75 -100 79 -5 4 35 39 90 78 l98 70 50 -41 c28
-22 71 -56 98 -75z m3945 37 c56 -44 102 -84 102 -88 0 -4 -47 -39 -104 -79
l-104 -71 -105 82 c-58 45 -105 85 -104 89 2 8 198 148 207 148 3 0 51 -36
108 -81z m-3489 -62 l53 -41 -28 -23 c-16 -13 -61 -45 -100 -72 l-70 -49 -102
79 c-56 44 -102 83 -102 87 1 4 45 37 98 73 l97 66 50 -40 c28 -22 74 -58 104
-80z m3961 47 c52 -42 96 -77 98 -79 2 -2 -45 -37 -104 -79 l-107 -75 -79 62
c-44 34 -89 70 -101 79 l-22 17 25 18 c108 78 186 132 190 132 3 1 48 -33 100
-75z m454 -6 c50 -39 97 -77 104 -83 11 -10 -6 -26 -88 -84 -55 -39 -104 -71
-109 -71 -4 0 -54 36 -110 81 l-102 80 103 74 c57 41 105 74 107 74 2 1 44
-31 95 -71z m-4003 -32 c116 -91 118 -76 -16 -169 l-80 -55 -108 85 -108 85
98 69 c54 38 101 68 105 66 4 -1 53 -38 109 -81z m455 -17 c52 -39 98 -77 104
-84 8 -10 -13 -30 -89 -84 l-101 -72 -102 82 c-57 45 -104 85 -106 89 -3 9
177 139 192 140 5 0 51 -32 102 -71z m482 -30 c57 -45 100 -85 95 -89 -11 -10
-175 -125 -190 -134 -7 -4 -55 28 -117 76 l-104 82 56 41 c96 69 147 104 152
104 3 1 51 -36 108 -80z m473 -16 c54 -43 98 -80 98 -83 0 -3 -47 -38 -105
-77 l-105 -72 -102 79 c-56 44 -101 83 -100 86 3 9 196 144 206 144 5 0 53
-35 108 -77z m473 -15 c52 -40 95 -76 95 -79 1 -7 -179 -136 -202 -144 -10 -4
-51 22 -116 72 -55 43 -100 80 -100 83 0 11 205 148 216 145 6 -2 54 -37 107
-77z m-3474 -4 c52 -42 96 -79 97 -82 2 -4 -19 -21 -45 -39 -26 -17 -77 -52
-114 -78 l-66 -46 -100 78 c-56 43 -101 80 -101 83 0 5 220 159 229 159 3 1
48 -33 100 -75z m3954 -9 c58 -44 104 -83 103 -87 -1 -4 -50 -40 -108 -81
l-107 -75 -106 84 c-59 45 -106 87 -105 91 3 11 202 152 211 150 4 -1 55 -38
112 -82z m-3495 -16 c50 -40 88 -76 85 -80 -2 -4 -47 -37 -100 -74 l-95 -66
-100 80 -99 79 97 70 c54 39 104 69 110 67 7 -2 53 -37 102 -76z m3969 -6 c54
-43 98 -82 98 -88 1 -10 -184 -145 -197 -145 -10 0 -210 158 -210 166 -1 8
191 144 203 144 4 0 52 -35 106 -77z m-3527 -12 c55 -44 99 -83 98 -88 -6 -18
-181 -134 -195 -129 -8 3 -57 40 -109 82 l-95 76 97 69 c54 37 99 68 101 68 1
1 48 -35 103 -78z m3994 -2 c50 -38 94 -74 98 -78 8 -8 -185 -151 -204 -151
-14 0 -202 150 -196 157 11 10 202 143 207 143 3 0 46 -32 95 -71z m473 -15
c53 -42 98 -80 100 -84 1 -4 -43 -40 -100 -80 -118 -83 -94 -85 -230 22 l-89
70 103 74 c57 40 107 73 111 74 5 0 52 -34 105 -76z m-4002 -16 c58 -45 101
-84 97 -88 -30 -26 -183 -130 -191 -130 -14 0 -214 161 -208 168 16 15 182
131 190 131 4 1 55 -36 112 -81z m-1767 14 l24 -19 -34 -25 c-83 -61 -123 -88
-125 -85 -2 2 11 44 28 94 l32 92 25 -19 c14 -11 37 -28 50 -38z m6247 -23
c57 -45 104 -84 104 -88 0 -3 -22 -20 -48 -37 -26 -18 -72 -50 -103 -72 l-55
-41 -107 86 c-59 46 -107 88 -107 91 1 8 192 141 204 142 4 0 55 -37 112 -81z
m-4013 -22 l106 -84 -100 -69 c-54 -38 -101 -68 -104 -67 -12 3 -216 166 -213
169 18 17 186 133 194 134 6 0 58 -38 117 -83z m495 -48 l72 -57 -100 -71
c-65 -46 -106 -69 -114 -64 -38 22 -194 149 -193 156 2 5 45 39 97 76 l95 68
35 -26 c19 -14 68 -51 108 -82z m440 2 c50 -40 90 -77 87 -82 -3 -5 -49 -39
-102 -76 -67 -46 -100 -64 -109 -57 -40 28 -193 150 -193 154 -1 12 205 147
214 141 6 -5 52 -40 103 -80z m460 -8 c53 -42 99 -78 102 -80 6 -5 -20 -25
-126 -98 l-82 -57 -100 79 c-56 43 -100 82 -99 86 3 10 188 146 200 147 4 0
51 -35 105 -77z m489 -27 l101 -80 -103 -73 c-56 -40 -107 -73 -112 -73 -6 0
-58 37 -116 83 l-106 84 107 75 c59 42 112 73 118 70 5 -4 56 -43 111 -86z
m-3966 5 l98 -79 -226 -158 c-124 -88 -233 -163 -241 -168 -20 -12 -13 43 29
216 l32 129 96 69 c53 38 100 69 105 69 4 1 53 -34 107 -78z m474 3 c52 -42
95 -79 95 -83 -1 -3 -52 -41 -114 -83 l-113 -77 -94 76 c-52 41 -94 79 -94 83
0 8 213 160 223 160 1 0 45 -34 97 -76z m3978 -24 c53 -41 96 -77 97 -80 0 -7
-207 -150 -218 -150 -19 0 -214 162 -205 171 33 33 209 147 218 141 7 -4 55
-41 108 -82z m-3524 3 c53 -42 98 -78 101 -81 6 -5 -30 -34 -124 -100 l-73
-50 -99 79 c-54 43 -99 83 -99 89 0 10 173 139 189 139 5 1 52 -33 105 -76z
m559 -113 c3 -8 -179 -140 -193 -140 -3 0 -51 37 -106 81 -67 54 -97 85 -91
91 6 6 50 38 98 73 l87 62 101 -79 c56 -44 102 -83 104 -88z m3427 98 c52 -40
94 -76 94 -80 1 -5 -154 -117 -195 -141 -7 -4 -57 28 -113 72 l-101 80 102 70
c56 39 106 71 111 71 5 0 51 -33 102 -72z m465 -14 c52 -42 96 -79 98 -83 2
-6 -150 -119 -195 -145 -7 -4 -56 28 -117 76 l-104 82 56 41 c111 80 147 104
157 105 6 0 53 -34 105 -76z m480 -21 c60 -47 109 -88 107 -89 -1 -2 -49 -37
-107 -78 l-104 -75 -40 32 c-23 19 -71 57 -108 86 -38 29 -68 56 -67 59 0 6
196 149 206 151 2 1 52 -38 113 -86z m-3931 -71 l34 -28 -99 -71 -100 -70
-108 85 c-123 97 -124 81 4 170 l84 59 76 -58 c41 -32 90 -71 109 -87z m390
31 c55 -43 100 -80 100 -83 0 -3 -45 -36 -100 -73 l-99 -68 -105 82 -105 82
62 45 c35 24 77 55 93 68 17 13 36 23 42 24 7 0 58 -35 112 -77z m466 -25 c52
-40 94 -75 94 -78 1 -10 -184 -134 -200 -134 -14 0 -207 143 -208 154 -1 11
195 139 207 135 7 -3 55 -37 107 -77z m464 -17 l101 -79 -99 -71 c-55 -39
-105 -71 -110 -71 -6 0 -56 36 -111 79 l-100 79 98 71 c53 38 102 70 108 70 7
1 57 -35 113 -78z m474 -21 c53 -41 96 -78 97 -82 0 -3 -45 -39 -101 -78
l-101 -71 -95 73 c-52 40 -102 79 -111 86 -15 11 -14 14 8 30 144 102 187 129
196 123 6 -3 54 -40 107 -81z m-3503 -4 c50 -40 91 -77 89 -82 -3 -10 -720
-513 -731 -514 -3 0 -5 8 -3 18 2 9 11 79 21 154 9 75 20 141 23 146 7 12 493
352 502 352 3 0 48 -33 99 -74z m484 -7 c55 -45 99 -84 97 -87 -9 -14 -210
-152 -221 -152 -14 0 -213 160 -207 166 15 15 214 153 221 153 4 1 54 -35 110
-80z m3500 -165 c-58 -41 -109 -74 -113 -74 -9 0 -211 158 -211 165 0 2 48 38
106 79 l106 75 108 -86 109 -86 -105 -73z m-3036 141 c56 -44 101 -82 101 -85
1 -3 -45 -37 -101 -76 l-102 -71 -102 81 c-57 45 -102 84 -101 88 3 10 190
147 198 145 3 -1 51 -38 107 -82z m3512 6 l101 -80 -100 -70 c-55 -39 -106
-74 -114 -76 -11 -5 -207 138 -207 150 0 4 211 155 217 155 2 0 48 -36 103
-79z m473 -22 l98 -78 -100 -70 c-55 -39 -104 -71 -110 -71 -11 0 -210 151
-210 160 0 11 205 147 214 142 6 -3 54 -41 108 -83z m-3522 -15 c60 -48 108
-88 107 -89 -45 -35 -191 -135 -198 -135 -13 0 -211 156 -211 167 0 6 177 139
189 142 2 1 53 -38 113 -85z m3990 0 c60 -47 109 -87 109 -89 0 -2 -45 -35
-101 -75 -64 -46 -106 -70 -116 -66 -18 7 -212 159 -212 166 0 5 200 149 207
150 2 0 53 -39 113 -86z m-3518 -37 c48 -38 87 -72 87 -75 -1 -4 -44 -37 -97
-74 l-96 -67 -76 59 c-42 33 -89 70 -105 83 l-29 23 99 71 c80 57 102 68 115
59 8 -6 54 -42 102 -79z m446 -14 c55 -43 100 -81 100 -84 1 -7 -185 -139
-195 -139 -11 0 -204 154 -202 162 4 9 180 137 190 138 5 0 53 -35 107 -77z
m469 -28 c50 -38 91 -73 91 -77 1 -3 -43 -38 -98 -76 l-99 -70 -105 83 -105
82 100 71 c60 43 106 68 113 64 7 -4 53 -38 103 -77z m472 -22 c54 -42 97 -80
94 -84 -7 -12 -192 -139 -202 -139 -5 0 -55 36 -112 81 -87 69 -100 83 -88 95
34 34 184 133 196 129 7 -3 57 -39 112 -82z m-2944 -107 c-3 -12 -957 -689
-962 -683 -2 2 -7 73 -11 159 l-6 154 388 271 389 270 102 -81 c57 -44 102
-85 100 -90z m3407 92 c56 -44 102 -85 102 -90 0 -4 -45 -40 -99 -78 -85 -60
-102 -68 -115 -57 -9 7 -58 46 -109 86 l-92 73 102 73 c57 40 104 73 106 74 1
1 48 -36 105 -81z m-3012 -19 c56 -45 97 -85 92 -89 -21 -18 -212 -150 -218
-150 -14 0 -204 155 -202 164 4 13 200 154 215 155 7 1 58 -36 113 -80z m3487
5 c53 -42 97 -80 97 -85 0 -8 -195 -149 -207 -149 -10 0 -198 150 -198 158 1
6 197 148 208 151 2 1 47 -33 100 -75z m487 -16 c52 -40 94 -76 95 -80 0 -14
-214 -157 -224 -149 -6 4 -55 42 -108 83 l-97 76 107 75 c59 42 113 74 120 72
7 -3 55 -37 107 -77z m-3502 -20 c53 -44 97 -81 97 -82 0 -2 -45 -36 -101 -75
l-101 -71 -109 87 c-60 48 -106 90 -102 94 38 34 198 137 207 132 6 -4 55 -42
109 -85z m3976 -5 c55 -43 100 -81 101 -85 0 -4 -45 -39 -100 -79 -70 -50
-104 -68 -113 -62 -181 141 -208 166 -195 179 33 33 184 133 195 129 7 -2 57
-39 112 -82z m-3445 -76 l29 -23 -102 -73 -103 -72 -97 78 c-53 43 -98 82
-100 86 -1 5 41 40 95 77 l97 68 76 -59 c42 -32 89 -69 105 -82z m384 32 l103
-81 -98 -69 c-54 -38 -101 -68 -105 -66 -12 4 -209 159 -206 162 16 14 193
135 198 135 3 0 52 -36 108 -81z m459 -23 c116 -91 119 -70 -22 -168 l-80 -56
-98 78 c-54 43 -99 82 -99 86 1 10 184 145 192 141 3 -1 51 -38 107 -81z m470
-29 l102 -80 -102 -72 -102 -72 -75 58 c-41 32 -90 71 -109 87 l-34 28 99 71
c54 39 104 68 109 65 6 -3 56 -41 112 -85z m469 -18 c57 -45 102 -84 100 -88
-2 -3 -49 -37 -104 -75 -90 -61 -102 -67 -119 -55 -103 75 -193 153 -185 161
19 19 187 137 196 137 4 1 55 -36 112 -80z m-3033 -32 l98 -78 -578 -408
c-471 -332 -579 -405 -585 -391 -11 28 -40 227 -36 250 2 14 151 126 493 369
270 191 495 345 500 343 6 -3 54 -41 108 -85z m3500 13 c53 -41 96 -77 97 -80
0 -3 -46 -37 -102 -76 l-102 -72 -75 59 c-42 32 -88 69 -104 81 l-27 23 102
72 c57 40 106 71 109 70 3 -1 49 -36 102 -77z m-2980 -50 c54 -43 65 -56 55
-66 -7 -7 -57 -44 -112 -82 l-99 -70 -101 80 c-55 44 -105 84 -110 88 -4 4 43
44 105 88 l114 81 40 -33 c22 -18 70 -57 108 -86z m3445 44 c53 -42 101 -80
105 -84 7 -6 -126 -107 -199 -152 -7 -5 -55 27 -118 76 l-107 84 108 76 c59
41 109 75 111 76 2 0 47 -34 100 -76z m495 -23 c59 -47 107 -87 107 -90 -1
-11 -198 -146 -213 -146 -9 0 -63 38 -122 83 l-106 84 58 42 c32 23 81 58 108
78 28 20 52 36 55 35 3 -1 54 -40 113 -86z m-3500 -25 c48 -38 84 -72 81 -77
-6 -10 -191 -139 -199 -139 -3 0 -51 36 -106 81 l-100 80 103 73 c83 59 106
71 119 62 8 -6 54 -42 102 -80z m447 -11 c52 -41 95 -79 95 -85 0 -15 -186
-142 -201 -136 -20 8 -194 149 -194 157 0 10 181 138 195 138 6 1 53 -33 105
-74z m458 -26 c57 -45 100 -85 95 -89 -4 -4 -48 -35 -97 -70 -80 -57 -91 -62
-110 -50 -35 21 -186 143 -186 149 1 6 181 139 190 140 3 0 51 -36 108 -80z
m569 -114 c-25 -22 -193 -135 -200 -135 -16 0 -218 163 -210 171 4 4 50 36
101 72 l94 66 109 -86 c60 -48 108 -87 106 -88z m359 63 c57 -45 104 -85 104
-88 0 -6 -173 -130 -192 -138 -11 -5 -220 159 -213 167 7 7 188 139 193 140 2
1 50 -36 108 -81z m569 -98 c5 -8 -183 -142 -201 -144 -13 -1 -204 143 -204
153 1 3 47 38 103 77 l102 71 98 -75 c54 -42 100 -79 102 -82z m373 55 c117
-92 120 -71 -25 -171 l-81 -56 -106 83 c-58 45 -104 84 -102 86 15 16 202 142
206 140 3 -1 52 -38 108 -82z m-3504 -12 l109 -87 -24 -18 c-13 -10 -298 -213
-633 -451 -335 -237 -611 -438 -614 -445 -2 -8 2 -12 10 -10 8 1 297 204 643
450 347 246 634 448 638 448 5 1 53 -33 108 -77 98 -77 99 -78 79 -95 -12 -9
-303 -216 -648 -459 -345 -243 -629 -444 -631 -446 -3 -2 0 -8 5 -13 7 -7 227
143 646 439 350 247 644 455 655 462 17 10 32 2 121 -67 55 -44 101 -82 101
-85 1 -4 -221 -163 -491 -355 -815 -577 -800 -566 -790 -576 7 -7 219 138 613
417 332 235 624 442 649 461 l46 33 103 -81 c83 -66 100 -83 89 -93 -7 -7
-283 -204 -614 -437 -330 -232 -600 -427 -600 -433 1 -5 6 -10 12 -9 5 1 286
196 623 434 559 395 615 432 634 420 52 -32 196 -155 190 -161 -5 -3 -272
-192 -595 -419 -324 -227 -588 -416 -588 -420 0 -14 -181 58 -336 135 -177 86
-352 201 -481 314 -93 82 -253 256 -253 276 0 5 -14 54 -32 109 -27 83 -30 99
-17 107 7 5 271 191 584 413 314 222 572 405 575 405 3 1 54 -38 114 -86z
m3987 -9 c61 -47 108 -88 106 -90 -2 -2 -51 -38 -108 -78 l-104 -74 -70 55
c-38 30 -89 69 -112 87 -23 17 -41 34 -40 38 3 9 200 148 210 148 5 0 58 -39
118 -86z m-3500 -1 c54 -43 98 -80 98 -83 0 -3 -49 -40 -110 -83 -95 -67 -113
-75 -128 -65 -10 7 -56 44 -104 82 l-87 69 63 45 c34 25 82 60 107 78 25 18
49 34 54 34 4 0 52 -35 107 -77z m459 -19 c52 -42 96 -79 98 -84 1 -4 -43 -40
-99 -79 l-101 -71 -97 77 c-54 43 -98 83 -99 88 -2 11 176 144 193 144 6 1 53
-33 105 -75z m461 -21 c54 -43 99 -81 99 -85 0 -3 -45 -38 -99 -77 l-100 -70
-101 81 c-84 67 -99 83 -88 94 15 15 181 134 187 134 1 0 48 -35 102 -77z
m472 -38 c54 -42 95 -81 90 -85 -4 -4 -48 -35 -97 -70 -103 -72 -82 -75 -217
32 -76 60 -88 73 -77 85 35 34 184 130 193 124 6 -5 54 -43 108 -86z m520 -69
c20 -16 37 -32 37 -36 0 -7 -185 -140 -195 -140 -9 0 -206 158 -206 165 0 4
43 38 97 76 l97 68 66 -51 c36 -29 83 -66 104 -82z m402 25 c52 -41 95 -77 95
-81 0 -4 -45 -37 -99 -74 l-99 -68 -101 77 c-56 43 -101 81 -101 84 1 9 194
140 202 138 4 -1 50 -35 103 -76z m478 -24 l97 -76 -99 -70 c-54 -39 -103 -72
-108 -73 -10 -3 -213 151 -213 161 1 14 206 148 215 141 6 -4 54 -42 108 -83z
m467 -24 c61 -48 107 -90 103 -94 -5 -3 -50 -37 -101 -73 -63 -45 -97 -64
-105 -58 -7 5 -57 44 -112 87 -55 42 -101 80 -102 84 -2 6 187 141 199 141 4
0 57 -39 118 -87z m-3017 -27 c48 -38 84 -72 82 -76 -8 -13 -205 -150 -216
-150 -10 0 -207 152 -208 160 0 3 50 40 111 82 94 65 114 75 128 65 9 -7 55
-43 103 -81z m448 -7 c55 -44 97 -84 94 -89 -7 -11 -191 -140 -200 -140 -3 0
-51 36 -106 81 l-100 80 103 74 c57 41 104 74 106 74 2 1 48 -35 103 -80z
m465 -20 c57 -45 104 -85 104 -89 0 -4 -46 -39 -101 -78 l-101 -71 -104 82
c-56 45 -102 86 -101 90 2 7 186 145 195 147 2 0 50 -37 108 -81z m501 -59
c40 -30 72 -57 72 -60 0 -3 -45 -36 -100 -73 l-99 -68 -105 82 c-58 45 -105
85 -105 88 1 3 44 36 98 72 l97 67 35 -27 c20 -14 68 -51 107 -81z m428 1 c52
-40 95 -77 95 -81 0 -7 -185 -140 -195 -140 -10 0 -190 144 -194 155 -5 10
178 146 191 142 4 -1 50 -35 103 -76z m450 -12 c50 -39 96 -76 103 -83 11 -11
-5 -26 -87 -85 l-101 -72 -102 81 c-57 45 -104 84 -105 88 -2 7 186 142 197
142 3 0 46 -32 95 -71z m486 -30 c57 -44 108 -84 112 -89 5 -4 -15 -25 -45
-47 -29 -21 -76 -55 -104 -75 l-50 -37 -117 91 -117 91 37 27 c136 97 169 119
174 120 3 0 52 -36 110 -81z m-2560 -46 c54 -43 98 -80 98 -83 0 -3 -50 -40
-110 -83 l-110 -77 -104 82 -103 82 61 44 c34 25 82 60 107 78 25 18 49 34 54
34 4 0 52 -35 107 -77z m468 -24 c55 -44 101 -82 101 -84 0 -5 -200 -145 -206
-145 -11 0 -200 155 -202 165 -2 11 176 144 194 145 6 0 57 -36 113 -81z m467
-20 c57 -45 104 -84 104 -88 -1 -3 -46 -37 -102 -75 -116 -79 -93 -82 -229 27
l-88 70 102 73 c56 40 104 73 106 74 2 0 50 -37 107 -81z m468 -31 c52 -40 95
-75 95 -78 0 -3 -45 -36 -100 -73 l-99 -68 -100 78 c-55 43 -99 81 -98 85 6
15 183 136 195 133 6 -2 54 -37 107 -77z m454 -19 c56 -44 100 -84 97 -89 -3
-5 -48 -38 -100 -75 l-94 -66 -101 80 c-56 44 -102 83 -102 88 -1 7 180 142
192 142 3 1 51 -36 108 -80z m478 -35 c55 -43 101 -83 103 -87 4 -15 -191
-148 -203 -138 -6 4 -56 43 -111 86 -55 42 -100 82 -100 87 0 16 189 146 200
138 6 -4 55 -43 111 -86z m-2098 -63 c51 -41 92 -78 92 -81 0 -7 -19 -21 -136
-103 l-80 -56 -107 86 -108 85 112 79 c66 46 116 76 123 71 7 -4 53 -40 104
-81z m475 -26 l97 -77 -105 -75 c-63 -44 -110 -71 -118 -67 -25 15 -197 158
-197 163 1 13 206 147 215 141 6 -4 54 -42 108 -85z m462 -14 c52 -40 95 -76
95 -80 0 -3 -15 -16 -33 -28 -17 -11 -64 -44 -103 -71 l-70 -51 -95 75 c-52
42 -98 79 -102 84 -9 8 191 152 205 148 4 -2 50 -36 103 -77z m458 -24 l106
-84 -94 -66 c-51 -37 -97 -68 -102 -69 -12 -4 -214 153 -211 163 3 8 178 137
189 138 3 1 53 -37 112 -82z m468 -28 c57 -44 108 -84 112 -89 5 -4 -37 -40
-92 -80 l-102 -72 -47 37 c-26 20 -77 60 -114 88 -37 29 -66 55 -65 59 3 10
181 137 193 138 6 0 57 -36 115 -81z m-1635 -91 c57 -46 104 -85 104 -88 -1
-7 -202 -144 -217 -148 -13 -4 -218 157 -210 164 7 8 212 153 215 153 2 1 51
-36 108 -81z m507 -51 c32 -25 57 -50 55 -54 -3 -9 -175 -132 -195 -140 -7 -3
-58 31 -113 75 l-101 81 107 75 107 76 41 -33 c23 -18 67 -54 99 -80z m422 22
c50 -39 96 -76 103 -84 11 -10 -4 -25 -88 -84 -55 -39 -105 -71 -111 -71 -18
0 -211 162 -202 170 16 15 197 140 202 140 3 0 47 -32 96 -71z m490 -51 c58
-45 105 -84 105 -87 0 -10 -184 -136 -196 -135 -11 1 -236 175 -232 179 46 39
196 134 206 130 7 -2 60 -42 117 -87z m-1566 -179 c1 -5 -1015 -721 -1064
-751 -19 -12 -328 67 -323 83 2 4 268 195 592 422 l590 414 102 -81 c57 -44
103 -84 103 -87z m382 69 c54 -44 98 -82 97 -83 -2 -1 -52 -37 -111 -79 l-109
-77 -97 78 c-53 43 -98 82 -100 86 -2 8 196 154 212 156 4 1 53 -36 108 -81z
m-2901 42 c12 -16 19 -30 16 -30 -2 0 -14 14 -26 30 -12 17 -19 30 -16 30 2 0
14 -13 26 -30z m3369 -57 c55 -43 100 -81 100 -84 1 -8 -197 -149 -209 -149
-13 0 -202 156 -201 166 2 12 182 142 198 143 7 1 58 -34 112 -76z m548 -77
c29 -23 52 -43 52 -46 0 -3 -47 -38 -105 -78 -68 -47 -109 -70 -118 -65 -7 4
-60 46 -119 93 l-105 84 56 41 c31 22 80 57 107 76 l50 36 65 -50 c36 -28 88
-69 117 -91z m492 -52 l183 -144 -116 -56 c-65 -30 -121 -54 -125 -52 -14 5
-330 252 -330 258 0 6 190 140 198 140 3 -1 89 -66 190 -146z m-1751 -32 c76
-61 91 -77 80 -88 -7 -7 -198 -142 -423 -301 -226 -158 -411 -292 -412 -298
-1 -5 4 -9 11 -9 7 1 203 135 436 299 384 271 425 297 443 285 52 -32 196
-155 190 -161 -5 -3 -141 -100 -303 -214 -162 -114 -300 -213 -306 -221 -14
-17 -283 -19 -480 -4 -125 10 -394 46 -401 54 -8 8 1052 744 1062 738 6 -3 52
-39 103 -80z m507 -36 c33 -27 60 -53 60 -57 0 -16 -209 -158 -220 -150 -5 4
-54 43 -107 85 l-98 78 112 79 111 79 41 -33 c23 -18 68 -55 101 -81z m446 3
c63 -50 115 -94 116 -97 1 -4 -45 -40 -103 -80 -72 -51 -108 -71 -117 -65 -78
60 -217 176 -217 181 1 5 188 143 206 151 1 1 53 -40 115 -90z m549 -75 c89
-70 157 -130 153 -135 -22 -20 -532 -219 -564 -219 -6 0 -56 36 -110 79 l-98
79 105 76 c58 42 107 76 110 76 3 0 61 -45 129 -100 68 -55 129 -100 135 -100
27 0 0 28 -115 119 l-125 100 103 75 c56 41 105 75 109 75 4 1 80 -56 168
-125z m-4514 -9 c123 -26 152 -43 214 -126 144 -195 511 -501 810 -677 52 -30
98 -60 101 -65 14 -20 -15 -68 -56 -97 -60 -42 -165 -82 -335 -129 -210 -58
-955 -293 -1315 -415 -428 -144 -777 -276 -1114 -420 -109 -47 -167 -66 -197
-66 -55 0 -74 8 -74 31 0 10 87 116 193 236 489 554 936 1085 1179 1400 77
101 157 198 178 217 56 50 127 89 200 108 82 21 122 22 216 3z m3727 -86 c62
-50 113 -94 114 -98 1 -3 -46 -40 -104 -82 l-107 -76 -118 95 c-65 52 -117 96
-115 99 7 6 212 152 215 153 2 0 54 -41 115 -91z m-130 -279 c-4 -4 -54 -40
-110 -79 -57 -40 -103 -76 -103 -80 0 -19 -600 -90 -620 -74 -3 3 2 8 10 13 8
5 145 101 304 213 l290 204 118 -95 c66 -52 115 -98 111 -102z m374 83 c52
-42 90 -79 84 -81 -122 -41 -307 -87 -309 -78 -2 6 -23 26 -48 45 -25 19 -41
37 -37 41 13 12 207 150 211 150 1 0 46 -35 99 -77z m-255 -174 c-4 -4 -69
-20 -145 -36 -76 -17 -134 -26 -128 -20 5 5 49 37 97 72 l88 63 47 -36 c26
-21 44 -40 41 -43z"/>
</g>
</svg>
