<?xml version="1.0" standalone="no"?>
<!DOCTYPE svg PUBLIC "-//W3C//DTD SVG 20010904//EN"
 "http://www.w3.org/TR/2001/REC-SVG-20010904/DTD/svg10.dtd">
<svg version="1.0" xmlns="http://www.w3.org/2000/svg"
 width="1280.000000pt" height="1280.000000pt" viewBox="0 0 1280.000000 1280.000000"
 preserveAspectRatio="xMidYMid meet">
<metadata>
Created by potrace 1.15, written by Peter Selinger 2001-2017
</metadata>
<g transform="translate(0.000000,1280.000000) scale(0.100000,-0.100000)"
fill="#000000" stroke="none">
<path d="M6800 11293 c-265 -18 -476 -48 -545 -77 -16 -8 -41 -26 -55 -41 -22
-23 -24 -34 -21 -83 12 -159 5 -255 -23 -342 -16 -47 -41 -140 -57 -207 -15
-67 -42 -156 -58 -198 -46 -113 -41 -141 38 -209 66 -58 75 -118 36 -222 -31
-82 -33 -156 -6 -183 32 -32 76 -50 183 -77 119 -30 149 -44 178 -84 31 -43
50 -178 50 -345 0 -168 -18 -300 -66 -498 l-36 -148 17 -61 c19 -70 18 -85
-31 -255 -55 -194 -112 -315 -214 -453 -82 -111 -95 -121 -635 -529 -198 -149
-314 -227 -555 -373 -201 -122 -295 -164 -407 -178 -100 -14 -169 -47 -247
-120 -155 -145 -159 -269 -17 -479 39 -57 45 -61 108 -80 37 -11 70 -17 74
-13 3 4 13 28 23 54 24 64 57 90 232 181 99 52 182 104 241 151 76 61 108 79
219 123 211 84 426 132 584 133 83 1 109 13 306 144 87 58 168 106 180 106 54
0 57 -47 24 -305 -11 -82 -20 -195 -20 -250 -1 -176 -17 -324 -44 -410 -43
-135 -32 -189 43 -211 24 -7 48 -19 52 -26 16 -25 9 -75 -16 -112 -43 -63 -62
-108 -84 -197 -11 -47 -91 -293 -177 -545 -239 -704 -253 -759 -279 -1060 -30
-354 -65 -495 -178 -739 -104 -222 -144 -334 -157 -441 -6 -49 -19 -107 -29
-129 -10 -23 -67 -95 -127 -161 -165 -180 -253 -281 -318 -364 -107 -137 -122
-142 -238 -80 -84 44 -218 85 -248 75 -11 -4 -20 -13 -20 -21 0 -26 37 -51
117 -78 44 -15 90 -37 102 -50 l22 -23 -57 -23 c-105 -43 -166 -27 -284 76
-77 67 -113 84 -176 84 -115 0 -198 -99 -178 -214 5 -33 21 -56 83 -120 134
-138 234 -205 411 -275 58 -23 166 -75 240 -117 74 -41 218 -116 319 -167 171
-86 188 -92 243 -92 51 1 62 4 79 25 41 53 120 230 145 325 38 146 68 195 149
245 44 27 55 60 53 160 -3 109 15 163 93 277 254 372 420 670 592 1058 127
287 195 480 217 615 34 208 77 341 157 483 31 54 75 153 99 220 23 67 49 137
56 155 14 31 15 31 30 15 25 -29 31 -45 128 -318 177 -501 201 -555 376 -825
178 -275 362 -579 414 -685 91 -183 126 -353 136 -655 7 -191 12 -219 56 -273
28 -35 30 -116 4 -167 -45 -87 -251 -342 -294 -364 -15 -7 -88 -23 -162 -35
-196 -32 -231 -44 -273 -90 -44 -49 -61 -108 -53 -181 9 -75 32 -110 91 -140
49 -25 54 -25 270 -24 303 2 544 24 975 89 283 43 282 42 256 253 -9 75 -23
227 -32 337 -16 208 -39 358 -124 810 -79 420 -137 668 -190 820 -108 312
-182 529 -239 706 -33 103 -83 238 -111 300 -172 379 -199 459 -234 690 -9 58
-38 182 -65 277 -62 216 -84 339 -85 472 -1 95 2 111 27 164 15 32 43 76 62
97 50 56 81 109 106 181 18 54 20 79 16 173 -4 98 -9 121 -43 210 l-38 100 -5
275 c-7 448 -5 515 18 700 19 147 22 201 17 335 -5 126 -3 179 9 250 31 169
35 210 35 350 0 171 -12 233 -104 525 -122 388 -254 594 -480 750 -99 69 -115
91 -126 171 -13 100 -27 119 -87 119 -39 0 -98 37 -85 53 16 19 146 246 180
313 87 172 94 407 19 594 -54 132 -162 270 -289 365 l-60 45 -81 -2 c-45 -1
-102 -3 -127 -5z"/>
</g>
</svg>
